<?xml version="1.0" standalone="no"?>
<!DOCTYPE svg PUBLIC "-//W3C//DTD SVG 1.1//EN" "http://www.w3.org/Graphics/SVG/1.1/DTD/svg11.dtd" >
<svg xmlns="http://www.w3.org/2000/svg">
<metadata></metadata>
<defs>
<font id="nordcomposite_regular" horiz-adv-x="649" >
<font-face units-per-em="2048" ascent="1706" descent="-342" />
<missing-glyph horiz-adv-x="342" />
<glyph horiz-adv-x="0" />
<glyph horiz-adv-x="682" />
<glyph unicode="&#x9;" horiz-adv-x="3414" d="M0 0z" />
<glyph unicode=" " horiz-adv-x="342" d="M0 0z" />
<glyph unicode="!" horiz-adv-x="342" d="M102 14v90q0 9 20.5 16t47.5 7q29 0 49.5 -7t20.5 -16v-90q0 -10 -20 -17t-50 -7q-28 0 -48 7t-20 17zM102 354v998q0 22 68 22q70 0 70 -22v-998q0 -9 -20.5 -15.5t-49.5 -6.5q-28 0 -48 6.5t-20 15.5z" />
<glyph unicode="&#x22;" horiz-adv-x="579" d="M102 1057v295q0 22 68 22q70 0 70 -22v-295q0 -10 -20 -16.5t-50 -6.5q-29 0 -48.5 6.5t-19.5 16.5zM342 1057v295q0 22 68 22q67 0 67 -22v-295q0 -23 -67 -23q-68 0 -68 23z" />
<glyph unicode="#" horiz-adv-x="808" d="M63 688q0 27 6.5 44.5t16.5 17.5h107v206h-107q-10 0 -16.5 17.5t-6.5 44.5q0 25 6.5 43t16.5 18h107v273q0 22 67 22q70 0 70 -22v-273h135v273q0 22 70 22q67 0 67 -22v-273h121q9 0 15.5 -18t6.5 -43q0 -26 -6.5 -44t-15.5 -18h-121v-206h121q9 0 15.5 -18t6.5 -44 t-6.5 -43.5t-15.5 -17.5h-121v-273q0 -9 -19.5 -15.5t-47.5 -6.5q-29 0 -49.5 6.5t-20.5 15.5v273h-135v-273q0 -9 -20.5 -15.5t-49.5 -6.5q-28 0 -47.5 6.5t-19.5 15.5v273h-107q-23 0 -23 61zM330 750h135v206h-135v-206z" />
<glyph unicode="$" horiz-adv-x="581" d="M68 227v135q0 9 20 16t49 7q27 0 47.5 -7t20.5 -16v-90q0 -18 25 -30.5t61 -12.5t61 12.5t25 30.5v314q0 17 -25.5 30t-60.5 13q-92 0 -157.5 32t-65.5 78v398q0 38 43.5 67.5t111.5 38.5v143q0 9 19.5 16t48.5 7t48 -7t19 -16v-143q68 -9 112 -38.5t44 -67.5v-133 q0 -10 -20 -16.5t-50 -6.5q-28 0 -47.5 6.5t-19.5 16.5v90q0 17 -25.5 30t-60.5 13t-60.5 -13t-25.5 -30v-299q0 -18 25 -30.5t61 -12.5q92 0 157.5 -32.5t65.5 -78.5v-414q0 -36 -44 -65.5t-112 -40.5v-141q0 -23 -67 -23q-68 0 -68 23v141q-68 11 -111.5 40.5t-43.5 65.5z " />
<glyph unicode="%" horiz-adv-x="1435" d="M102 774v500q0 47 65.5 79.5t158.5 32.5q92 0 156.5 -32.5t64.5 -79.5v-500q0 -47 -64.5 -79.5t-156.5 -32.5q-93 0 -158.5 32.5t-65.5 79.5zM240 817q0 -17 24.5 -29t61.5 -12q35 0 60.5 12t25.5 29v414q0 17 -25.5 29t-60.5 12q-37 0 -61.5 -12t-24.5 -29v-414zM649 14 v1338q0 22 70 22q67 0 67 -22v-1338q0 -10 -19.5 -17t-47.5 -7q-30 0 -50 7t-20 17zM887 92v500q0 46 65.5 78t157.5 32t157.5 -32t65.5 -78v-500q0 -47 -65 -79.5t-158 -32.5t-158 32.5t-65 79.5zM1024 135q0 -17 25.5 -30t60.5 -13t60.5 13t25.5 30v412q0 18 -25 30.5 t-61 12.5t-61 -12.5t-25 -30.5v-412z" />
<glyph unicode="&#x26;" d="M102 92v344q0 31 19.5 57.5t50.5 36.5q-31 9 -50.5 36t-19.5 59v307q0 47 65.5 79.5t158.5 32.5q92 0 156.5 -32.5t64.5 -79.5v-352q0 -46 -64.5 -78.5t-156.5 -32.5q-36 0 -61 -12.5t-25 -30.5v-291q0 -18 25 -30.5t61 -12.5q35 0 60.5 13t25.5 30v193q0 22 67 22 q68 0 68 -22v-547q0 -9 -19.5 -16t-48.5 -7t-48 7t-19 16v223q-57 -24 -107 -24q-94 0 -148.5 34.5t-54.5 77.5zM240 633q0 -17 24.5 -29t61.5 -12q35 0 60.5 12t25.5 29v254q0 19 -25.5 32t-60.5 13q-37 0 -61.5 -13t-24.5 -32v-254z" />
<glyph unicode="'" horiz-adv-x="342" d="M102 1057v295q0 22 68 22q70 0 70 -22v-295q0 -10 -20 -16.5t-50 -6.5q-29 0 -48.5 6.5t-19.5 16.5z" />
<glyph unicode="(" horiz-adv-x="444" d="M102 -240v1641q0 46 66 78t158 32h86q9 0 15.5 -17.5t6.5 -43.5t-6.5 -43.5t-15.5 -17.5h-86q-37 0 -61.5 -12t-24.5 -31v-1532q0 -17 24.5 -29t61.5 -12h86q9 0 15.5 -18.5t6.5 -43.5q0 -26 -6.5 -43.5t-15.5 -17.5h-86q-92 0 -158 32t-66 78z" />
<glyph unicode=")" horiz-adv-x="444" d="M10 -289q0 26 6.5 44t16.5 18h86q35 0 60.5 12t25.5 29v1532q0 18 -25 30.5t-61 12.5h-86q-23 0 -23 61t23 61h86q92 0 157.5 -32t65.5 -78v-1641q0 -46 -65.5 -78t-157.5 -32h-86q-23 0 -23 61z" />
<glyph unicode="*" horiz-adv-x="528" d="M76.5 1099q0.5 6 3.5 7l110 63l-110 66q-3 1 -3.5 6.5t2.5 14t9 16.5q6 13 15 20t14 4l110 -61v127q0 12 37 12t37 -12v-127l111 61q5 3 14 -4t16 -20q7 -12 9.5 -24t-2.5 -13l-111 -66l111 -63q5 -1 2.5 -13.5t-9.5 -25.5q-20 -32 -30 -25l-111 64v-127q0 -14 -37 -14 t-37 14v127l-110 -64q-4 -3 -13.5 5t-15.5 20q-6 9 -9 17.5t-2.5 14.5z" />
<glyph unicode="+" horiz-adv-x="706" d="M59 598q0 61 23 61h209l2 211q0 9 17.5 16t43.5 7q24 0 42 -7t18 -16v-211h211q9 0 15.5 -17.5t6.5 -43.5t-6.5 -43.5t-15.5 -17.5h-211v-211q0 -9 -17.5 -15t-42.5 -6q-26 0 -43.5 6t-17.5 15l-2 211h-209q-23 0 -23 61z" />
<glyph unicode="," horiz-adv-x="342" d="M102 104q0 9 20.5 16t47.5 7q29 0 49.5 -7t20.5 -16v-294q0 -10 -20.5 -17.5t-49.5 -7.5q-28 0 -48 7.5t-20 17.5v294z" />
<glyph unicode="-" horiz-adv-x="591" d="M59 598q0 61 23 61h428q9 0 15.5 -17.5t6.5 -43.5t-6.5 -43.5t-15.5 -17.5h-428q-23 0 -23 61z" />
<glyph unicode="." horiz-adv-x="342" d="M102 14v90q0 9 20.5 16t47.5 7q29 0 49.5 -7t20.5 -16v-90q0 -10 -20 -17t-50 -7q-28 0 -48 7t-20 17z" />
<glyph unicode="/" horiz-adv-x="548" d="M-18 -158l450 1680q1 10 23.5 17t50.5 7t46 -7t15 -17l-450 -1680q-1 -9 -23.5 -15.5t-50.5 -6.5t-46 6.5t-15 15.5z" />
<glyph unicode="0" d="M102 92v840q0 47 65.5 79.5t158.5 32.5q92 0 156.5 -32.5t64.5 -79.5v-840q0 -47 -64.5 -79.5t-156.5 -32.5q-93 0 -158.5 32.5t-65.5 79.5zM240 135q0 -18 25 -30.5t61 -12.5q35 0 60.5 13t25.5 30v754q0 17 -25.5 30t-60.5 13q-36 0 -61 -12.5t-25 -30.5v-754z" />
<glyph unicode="1" horiz-adv-x="477" d="M43 963q0 26 7 43.5t18 17.5h307v-1010q0 -10 -19.5 -17t-48.5 -7t-48 7t-19 17v887h-172q-11 0 -18 18t-7 44z" />
<glyph unicode="2" horiz-adv-x="571" d="M68 0v432q0 46 65.5 78.5t157.5 32.5q36 0 61 12.5t25 30.5v303q0 17 -25.5 30t-60.5 13t-60.5 -13t-25.5 -30v-90q0 -10 -19.5 -16.5t-48.5 -6.5q-30 0 -49.5 6.5t-19.5 16.5v133q0 47 65 79.5t158 32.5t158 -32.5t65 -79.5v-402q0 -46 -65.5 -78t-157.5 -32 q-35 0 -60.5 -13t-25.5 -30v-254h295q22 0 22 -62q0 -61 -22 -61h-432z" />
<glyph unicode="3" horiz-adv-x="616" d="M68 -117q0 11 20 18t49 7q28 0 48 -7.5t20 -17.5v-90q0 -17 25.5 -29t60.5 -12t60.5 12t25.5 29v463q0 17 -25.5 29t-60.5 12h-86q-9 0 -16 18t-7 43q0 26 7 44t16 18h86q35 0 60.5 13t25.5 32v424q0 17 -25.5 30t-60.5 13t-60.5 -13t-25.5 -30v-90q0 -10 -19.5 -16.5 t-48.5 -6.5q-30 0 -49.5 6.5t-19.5 16.5v133q0 47 65 79.5t158 32.5t158 -32.5t65 -79.5v-479q0 -31 -19.5 -58t-50.5 -37q31 -9 50.5 -35.5t19.5 -58.5v-514q0 -47 -65 -79.5t-158 -32.5t-158 32.5t-65 79.5v133z" />
<glyph unicode="4" d="M102 100v910q0 10 20 17t48 7q30 0 50 -7t20 -17v-856q0 -17 24.5 -29t61.5 -12h86v897q0 10 19 17t48 7t48.5 -7t19.5 -17v-1338q0 -22 -68 -22q-67 0 -67 22v318h-86q-92 0 -158 32t-66 78z" />
<glyph unicode="5" horiz-adv-x="571" d="M68 -117q0 11 20 18t49 7q28 0 48 -7.5t20 -17.5v-90q0 -17 25.5 -29t60.5 -12t60.5 12t25.5 29v475q0 19 -25.5 32t-60.5 13h-154v711h352q11 0 18 -17.5t7 -43.5t-7 -44t-18 -18h-217v-465q103 0 172.5 -32.5t69.5 -79.5v-576q0 -46 -65.5 -78t-157.5 -32t-157.5 32 t-65.5 78v135z" />
<glyph unicode="6" horiz-adv-x="636" d="M102 90v1184q0 47 65.5 79.5t158.5 32.5q92 0 156.5 -32.5t64.5 -79.5v-133q0 -11 -19.5 -18t-48.5 -7t-48 7t-19 18v88q0 18 -25 30.5t-61 12.5q-37 0 -61.5 -12t-24.5 -31v-512q53 24 106 24q93 0 147 -34.5t54 -75.5v-541q0 -46 -64.5 -78t-156.5 -32t-158 32t-66 78z M240 135q0 -18 25 -30.5t61 -12.5q35 0 60.5 13t25.5 30v451q0 17 -25.5 30t-60.5 13q-36 0 -61 -12.5t-25 -30.5v-451z" />
<glyph unicode="7" horiz-adv-x="591" d="M43 799v133q0 47 65 79.5t158 32.5t158 -32.5t65 -79.5v-1260q0 -22 -69 -22q-68 0 -68 22v1217q0 17 -25.5 30t-60.5 13t-60.5 -13t-25.5 -30v-90q0 -10 -19.5 -16.5t-47.5 -6.5q-30 0 -50 6.5t-20 16.5z" />
<glyph unicode="8" d="M102 92v514q0 32 19.5 57.5t50.5 36.5q-31 11 -50.5 37t-19.5 58v479q0 47 65.5 79.5t158.5 32.5q92 0 156.5 -32.5t64.5 -79.5v-479q0 -32 -19.5 -58t-50.5 -37q31 -11 50.5 -36.5t19.5 -57.5v-514q0 -47 -64.5 -79.5t-156.5 -32.5q-93 0 -158.5 32.5t-65.5 79.5z M240 135q0 -18 25 -30.5t61 -12.5q35 0 60.5 13t25.5 30v467q0 17 -25.5 30t-60.5 13q-36 0 -61 -12.5t-25 -30.5v-467zM240 801q0 -19 24.5 -31t61.5 -12q36 0 61 12.5t25 30.5v430q0 17 -25.5 29t-60.5 12q-37 0 -61.5 -12t-24.5 -29v-430z" />
<glyph unicode="9" horiz-adv-x="636" d="M88 -117q0 10 20.5 17.5t49.5 7.5q28 0 47.5 -7.5t19.5 -17.5v-90q0 -17 25.5 -29t60.5 -12t60.5 12t25.5 29v514q-53 -24 -106 -24q-93 0 -148 34.5t-55 75.5v539q0 47 65 79.5t158 32.5t158.5 -32.5t65.5 -79.5v-1182q0 -47 -65.5 -79.5t-158.5 -32.5t-158 32.5 t-65 79.5v133zM225 438q0 -17 25.5 -30t60.5 -13t60.5 13t25.5 30v451q0 17 -25.5 30t-60.5 13t-60.5 -13t-25.5 -30v-451z" />
<glyph unicode=":" horiz-adv-x="342" d="M102 14v90q0 9 20.5 16t47.5 7q29 0 49.5 -7t20.5 -16v-90q0 -10 -20 -17t-50 -7q-28 0 -48 7t-20 17zM102 920v90q0 10 20 17t48 7q30 0 50 -7t20 -17v-90q0 -9 -20.5 -16t-49.5 -7q-27 0 -47.5 7t-20.5 16z" />
<glyph unicode=";" horiz-adv-x="342" d="M102 104q0 9 20.5 16t47.5 7q29 0 49.5 -7t20.5 -16v-294q0 -10 -20.5 -17.5t-49.5 -7.5q-28 0 -48 7.5t-20 17.5v294zM102 920v90q0 10 20 17t48 7q30 0 50 -7t20 -17v-90q0 -9 -20.5 -16t-49.5 -7q-27 0 -47.5 7t-20.5 16z" />
<glyph unicode="&#x3c;" horiz-adv-x="530" d="M102 512l222 498q4 10 27 17t52 7q28 0 44.5 -7t13.5 -17l-221 -498l221 -498q3 -10 -13.5 -17t-44.5 -7q-29 0 -52 7t-27 17z" />
<glyph unicode="=" horiz-adv-x="591" d="M59 426q0 61 23 61h428q9 0 15.5 -17.5t6.5 -43.5t-6.5 -43.5t-15.5 -17.5h-428q-23 0 -23 61zM59 768q0 25 6.5 43t16.5 18h428q9 0 15.5 -18t6.5 -43q0 -26 -6.5 -43.5t-15.5 -17.5h-428q-23 0 -23 61z" />
<glyph unicode="&#x3e;" horiz-adv-x="530" d="M70 14l221 498l-221 498q-4 10 12.5 17t44.5 7q66 0 80 -24l221 -498l-221 -498q-14 -24 -80 -24q-28 0 -44.5 7t-12.5 17z" />
<glyph unicode="?" horiz-adv-x="581" d="M68 1141v133q0 47 65 79.5t158 32.5t158 -32.5t65 -79.5v-555q0 -37 -44 -66.5t-112 -40.5v-258q0 -9 -19 -15.5t-48 -6.5t-48.5 6.5t-19.5 15.5v348q0 9 19.5 16t48.5 7q36 0 61 12.5t25 30.5v463q0 17 -25.5 29t-60.5 12t-60.5 -12t-25.5 -29v-90q0 -10 -20 -17.5 t-48 -7.5q-29 0 -49 7t-20 18zM223 14v90q0 9 19.5 16t48.5 7t48 -7t19 -16v-90q0 -10 -19 -17t-48 -7t-48.5 7t-19.5 17z" />
<glyph unicode="@" horiz-adv-x="956" d="M102 162v1040q0 76 110 130t265 54q103 0 189.5 -24.5t137 -67t50.5 -92.5v-1040q0 -75 -110.5 -128.5t-266.5 -53.5q-155 0 -265 53.5t-110 128.5zM256 262q0 -47 64.5 -79.5t156.5 -32.5q93 0 158 32.5t65 79.5v842q0 46 -65.5 78t-157.5 32t-156.5 -32t-64.5 -78v-135 q0 -9 20.5 -16t47.5 -7q29 0 48 7t19 16v90q0 18 25.5 30.5t60.5 12.5q37 0 61.5 -12t24.5 -31v-336h-86q-92 0 -156.5 -33t-64.5 -80v-348zM391 305v252q0 17 26 30t60 13h86v-295q0 -17 -24.5 -29t-61.5 -12q-34 0 -60 12t-26 29z" />
<glyph unicode="A" horiz-adv-x="636" d="M88 92v518q0 47 65.5 80t157.5 33h86v508q0 17 -25.5 29t-60.5 12t-60.5 -12t-25.5 -29v-90q0 -10 -19.5 -17.5t-47.5 -7.5q-29 0 -49.5 7.5t-20.5 17.5v135q0 46 65.5 78t157.5 32t158 -32t66 -78v-1184q0 -47 -65.5 -79.5t-158.5 -32.5t-158 32.5t-65 79.5zM225 135 q0 -17 25.5 -30t60.5 -13t60.5 13t25.5 30v465h-86q-35 0 -60.5 -13t-25.5 -30v-422z" />
<glyph unicode="B" d="M102 14v1260q0 47 65.5 79.5t158.5 32.5q92 0 156.5 -32.5t64.5 -79.5v-479q0 -32 -19.5 -58t-50.5 -37q31 -11 50.5 -36.5t19.5 -57.5v-487q0 -57 -64.5 -98t-156.5 -41q-108 0 -224 34zM240 109q53 -17 86 -17q39 0 62.5 19.5t23.5 48.5v436q0 18 -25 30.5t-61 12.5 h-86v-530zM240 762h86q36 0 61 12.5t25 30.5v426q0 17 -25.5 29t-60.5 12q-37 0 -61.5 -12t-24.5 -29v-469z" />
<glyph unicode="C" horiz-adv-x="616" d="M102 92v1182q0 47 65.5 79.5t158.5 32.5q92 0 156.5 -32.5t64.5 -79.5v-133q0 -11 -19.5 -18t-48.5 -7t-48 7t-19 18v90q0 17 -25.5 29t-60.5 12q-37 0 -61.5 -12t-24.5 -29v-1096q0 -18 25 -30.5t61 -12.5q35 0 60.5 13t25.5 30v90q0 23 67 23q68 0 68 -23v-133 q0 -47 -64.5 -79.5t-156.5 -32.5q-93 0 -158.5 32.5t-65.5 79.5z" />
<glyph unicode="D" d="M102 14v1336q122 36 224 36q92 0 156.5 -41t64.5 -98v-1128q0 -57 -64.5 -98t-156.5 -41q-108 0 -224 34zM240 109q53 -17 86 -17q39 0 62.5 19.5t23.5 48.5v1046q0 28 -23.5 47t-62.5 19q-44 0 -86 -17v-1146z" />
<glyph unicode="E" horiz-adv-x="636" d="M102 92v1184q0 46 66 78t158 32t156.5 -32t64.5 -78v-520q0 -47 -64.5 -80t-156.5 -33h-86v-508q0 -18 25 -30.5t61 -12.5q35 0 60.5 13t25.5 30v90q0 23 67 23q68 0 68 -23v-133q0 -47 -64.5 -79.5t-156.5 -32.5q-93 0 -158.5 32.5t-65.5 79.5zM240 766h86q36 0 61 12.5 t25 30.5v422q0 17 -25.5 29t-60.5 12q-37 0 -61.5 -12t-24.5 -29v-465z" />
<glyph unicode="F" horiz-adv-x="591" d="M102 14v1260q0 47 65.5 79.5t158.5 32.5q92 0 156.5 -32.5t64.5 -79.5v-133q0 -11 -19.5 -18t-48.5 -7t-48 7t-19 18v90q0 17 -25.5 29t-60.5 12q-37 0 -61.5 -12t-24.5 -29v-469h239q9 0 16 -18t7 -44t-7 -43.5t-16 -17.5h-239v-625q0 -10 -20 -17t-50 -7q-28 0 -48 7 t-20 17z" />
<glyph unicode="G" horiz-adv-x="636" d="M102 92v1182q0 47 65.5 79.5t158.5 32.5q92 0 156.5 -32.5t64.5 -79.5v-133q0 -11 -19.5 -18t-48.5 -7t-48 7t-19 18v90q0 17 -25.5 29t-60.5 12q-37 0 -61.5 -12t-24.5 -29v-1096q0 -18 25 -30.5t61 -12.5q35 0 60.5 13t25.5 30v547q0 9 19.5 17t47.5 8t48 -8t20 -17 v-590q0 -47 -64.5 -79.5t-156.5 -32.5q-93 0 -158.5 32.5t-65.5 79.5z" />
<glyph unicode="H" d="M102 14v1338q0 22 68 22q70 0 70 -22v-590h172v590q0 22 67 22q68 0 68 -22v-1338q0 -10 -19.5 -17t-48.5 -7t-48 7t-19 17v625h-172v-625q0 -10 -20 -17t-50 -7q-28 0 -48 7t-20 17z" />
<glyph unicode="I" horiz-adv-x="342" d="M102 14v1338q0 22 68 22q70 0 70 -22v-1338q0 -10 -20 -17t-50 -7q-28 0 -48 7t-20 17zM102 1604v90q0 9 20 15.5t48 6.5q29 0 49.5 -6.5t20.5 -15.5v-90q0 -10 -20.5 -17.5t-49.5 -7.5q-28 0 -48 7.5t-20 17.5z" />
<glyph unicode="J" horiz-adv-x="581" d="M35 92v133q0 23 67 23q68 0 68 -23v-88q0 -19 25.5 -32t60.5 -13q37 0 61.5 13t24.5 32v1215q0 22 70 22q67 0 67 -22v-1260q0 -47 -65 -79.5t-158 -32.5q-92 0 -156.5 32.5t-64.5 79.5z" />
<glyph unicode="K" d="M102 14v1338q0 22 68 22q70 0 70 -22v-590h86q36 0 61 12.5t25 30.5v547q0 22 67 22q68 0 68 -22v-559q0 -31 -19.5 -58t-50.5 -37q31 -9 50.5 -35.5t19.5 -58.5v-590q0 -10 -19.5 -17t-48.5 -7t-48 7t-19 17v582q0 18 -25 30.5t-61 12.5h-86v-625q0 -10 -20 -17t-50 -7 q-28 0 -48 7t-20 17z" />
<glyph unicode="L" horiz-adv-x="581" d="M102 92v1260q0 22 68 22q70 0 70 -22v-1215q0 -19 24.5 -32t61.5 -13q35 0 60.5 13t25.5 32v88q0 23 67 23q68 0 68 -23v-133q0 -47 -64.5 -79.5t-156.5 -32.5q-93 0 -158.5 32.5t-65.5 79.5z" />
<glyph unicode="M" horiz-adv-x="903" d="M102 14v1260q0 48 59 80t150 32q35 0 76 -12t66 -28q23 16 63.5 28t75.5 12q91 0 150 -32t59 -80v-1260q0 -10 -19.5 -17t-48.5 -7t-48 7t-19 17v1217q0 18 -19.5 29.5t-54.5 11.5q-34 0 -53 -11.5t-19 -29.5v-1217q0 -10 -19.5 -17t-47.5 -7q-30 0 -50 7t-20 17v1217 q0 18 -19 29.5t-53 11.5t-52.5 -11.5t-18.5 -29.5v-1217q0 -10 -20 -17t-50 -7q-28 0 -48 7t-20 17z" />
<glyph unicode="N" d="M102 14v1260q0 47 65.5 79.5t158.5 32.5q92 0 156.5 -32.5t64.5 -79.5v-1260q0 -10 -19.5 -17t-48.5 -7t-48 7t-19 17v1217q0 17 -25.5 29t-60.5 12q-37 0 -61.5 -12t-24.5 -29v-1217q0 -10 -20 -17t-50 -7q-28 0 -48 7t-20 17z" />
<glyph unicode="O" d="M102 92v1182q0 47 65.5 79.5t158.5 32.5q92 0 156.5 -32.5t64.5 -79.5v-1182q0 -47 -64.5 -79.5t-156.5 -32.5q-93 0 -158.5 32.5t-65.5 79.5zM240 135q0 -18 25 -30.5t61 -12.5q35 0 60.5 13t25.5 30v1096q0 17 -25.5 29t-60.5 12q-37 0 -61.5 -12t-24.5 -29v-1096z" />
<glyph unicode="P" horiz-adv-x="622" d="M102 14v1260q0 47 65.5 79.5t158.5 32.5q92 0 156.5 -32.5t64.5 -79.5v-641q0 -46 -64.5 -78.5t-156.5 -32.5h-86v-508q0 -10 -20 -17t-50 -7q-28 0 -48 7t-20 17zM240 645h86q36 0 61 12.5t25 30.5v543q0 17 -25.5 29t-60.5 12q-37 0 -61.5 -12t-24.5 -29v-586z" />
<glyph unicode="Q" d="M102 92v1182q0 47 65.5 79.5t158.5 32.5q92 0 156.5 -32.5t64.5 -79.5v-1182q0 -38 -43 -67.5t-111 -38.5v-314q0 -22 -67 -22q-70 0 -70 22v314q-68 9 -111 38.5t-43 67.5zM240 135q0 -18 25 -30.5t61 -12.5q35 0 60.5 13t25.5 30v1096q0 17 -25.5 29t-60.5 12 q-37 0 -61.5 -12t-24.5 -29v-1096z" />
<glyph unicode="R" horiz-adv-x="477" d="M102 14v1256q0 46 66 78t158 32h86q9 0 15.5 -17.5t6.5 -43.5t-6.5 -44t-15.5 -18h-86q-37 0 -61.5 -12t-24.5 -31v-1200q0 -10 -20 -17t-50 -7q-28 0 -48 7t-20 17z" />
<glyph unicode="S" horiz-adv-x="581" d="M68 90v135q0 10 19.5 16.5t49.5 6.5q29 0 48.5 -6.5t19.5 -16.5v-90q0 -17 25.5 -30t60.5 -13t60.5 13t25.5 30v451q0 17 -25.5 30t-60.5 13q-92 0 -157.5 32t-65.5 78v535q0 47 65 79.5t158 32.5t158 -32.5t65 -79.5v-133q0 -10 -20.5 -17.5t-49.5 -7.5q-28 0 -47.5 7.5 t-19.5 17.5v90q0 17 -25.5 29t-60.5 12t-60.5 -12t-25.5 -29v-436q0 -18 25 -30.5t61 -12.5q92 0 157.5 -32.5t65.5 -78.5v-551q0 -46 -65.5 -78t-157.5 -32t-157.5 32t-65.5 78z" />
<glyph unicode="T" horiz-adv-x="628" d="M31 1305q0 25 7 43t17 18h518q10 0 16.5 -18t6.5 -43q0 -27 -6.5 -44.5t-16.5 -17.5h-190v-1229q0 -10 -20 -17t-50 -7q-28 0 -47.5 7t-19.5 17v1229h-191q-10 0 -17 18t-7 44z" />
<glyph unicode="U" d="M102 92v1260q0 22 68 22q70 0 70 -22v-1215q0 -19 24.5 -32t61.5 -13q35 0 60.5 13t25.5 32v1215q0 22 67 22q68 0 68 -22v-1260q0 -47 -64.5 -79.5t-156.5 -32.5q-93 0 -158.5 32.5t-65.5 79.5z" />
<glyph unicode="V" d="M102 682v670q0 22 68 22q70 0 70 -22v-670q0 -313 86 -539q86 235 86 539v670q0 22 67 22q68 0 68 -22v-670q0 -184 -45.5 -380.5t-110.5 -295.5q-11 -16 -65 -16q-55 0 -66 16q-65 99 -111.5 296t-46.5 380z" />
<glyph unicode="W" horiz-adv-x="903" d="M102 92v1260q0 22 68 22q70 0 70 -22v-1215q0 -20 18.5 -32.5t52.5 -12.5t53 12.5t19 32.5v1215q0 22 70 22q67 0 67 -22v-1215q0 -20 19 -32.5t53 -12.5q35 0 54.5 12.5t19.5 32.5v1215q0 22 67 22q68 0 68 -22v-1260q0 -48 -59 -80t-150 -32q-35 0 -75.5 12t-63.5 28 q-25 -16 -66 -28t-76 -12q-91 0 -150 32t-59 80z" />
<glyph unicode="X" d="M102 14v592q0 32 19.5 57.5t50.5 36.5q-31 11 -50.5 37t-19.5 58v557q0 22 68 22q70 0 70 -22v-551q0 -19 24.5 -31t61.5 -12q36 0 61 12.5t25 30.5v551q0 22 67 22q68 0 68 -22v-557q0 -32 -19.5 -58t-50.5 -37q31 -11 50.5 -36.5t19.5 -57.5v-592q0 -10 -19.5 -17 t-48.5 -7t-48 7t-19 17v588q0 17 -25.5 30t-60.5 13q-36 0 -61 -12.5t-25 -30.5v-588q0 -10 -20 -17t-50 -7q-28 0 -48 7t-20 17z" />
<glyph unicode="Y" d="M102 -117q0 10 20 17.5t48 7.5q29 0 49.5 -7.5t20.5 -17.5v-90q0 -17 24.5 -29t61.5 -12q35 0 60.5 12t25.5 29v619q-52 -25 -107 -25q-94 0 -148.5 35t-54.5 76v854q0 22 68 22q70 0 70 -22v-809q0 -19 24.5 -31t61.5 -12q36 0 61 12.5t25 30.5v809q0 22 67 22 q68 0 68 -22v-1602q0 -47 -64.5 -79.5t-156.5 -32.5q-93 0 -158.5 32.5t-65.5 79.5v133z" />
<glyph unicode="Z" horiz-adv-x="581" d="M68 0v641q0 46 65.5 78.5t157.5 32.5q36 0 61 12.5t25 30.5v448h-285q-10 0 -17 18t-7 44q0 25 7 43t17 18h422v-627q0 -46 -65.5 -78t-157.5 -32q-35 0 -60.5 -13t-25.5 -30v-463h284q11 0 18 -18t7 -44t-7 -43.5t-18 -17.5h-421z" />
<glyph unicode="[" horiz-adv-x="444" d="M102 -342v1843h310q9 0 15.5 -17.5t6.5 -43.5q0 -25 -6.5 -43.5t-15.5 -18.5h-172v-1597h172q9 0 15.5 -18t6.5 -44q0 -25 -6.5 -43t-15.5 -18h-310z" />
<glyph unicode="\" horiz-adv-x="548" d="M-18 1522q-3 10 15 17t46 7t50.5 -7t23.5 -17l450 -1680q3 -9 -15 -15.5t-46 -6.5t-50.5 6.5t-23.5 15.5z" />
<glyph unicode="]" horiz-adv-x="444" d="M10 -281q0 27 6.5 44.5t16.5 17.5h172v1597h-172q-10 0 -16.5 18t-6.5 44q0 61 23 61h309v-1843h-309q-10 0 -16.5 18t-6.5 43z" />
<glyph unicode="^" d="M113 1194l143 332q12 24 70 24q55 0 67 -24l146 -332q2 -6 -7.5 -12t-26.5 -9.5t-36 -3.5q-55 0 -68 25l-75 176l-78 -176q-3 -10 -21.5 -17.5t-46.5 -7.5q-19 0 -36 3.5t-25.5 9.5t-5.5 12z" />
<glyph unicode="_" horiz-adv-x="591" d="M59 61q0 27 6.5 44.5t16.5 17.5h428q9 0 15.5 -18t6.5 -44t-6.5 -43.5t-15.5 -17.5h-428q-23 0 -23 61z" />
<glyph unicode="`" d="M147 1526q-2 6 7.5 11.5t26 9t34.5 3.5q28 0 47.5 -7t22.5 -17l108 -383q2 -6 -7 -11.5t-25.5 -8.5t-34.5 -3q-62 0 -70 23z" />
<glyph unicode="a" d="M102 14v918q0 47 65.5 79.5t158.5 32.5q92 0 156.5 -32.5t64.5 -79.5v-918q0 -10 -19.5 -17t-48.5 -7t-48 7t-19 17v455h-172v-455q0 -10 -20 -17t-50 -7q-28 0 -48 7t-20 17zM240 592h172v295q0 19 -25.5 32t-60.5 13q-37 0 -61.5 -13t-24.5 -32v-295z" />
<glyph unicode="b" d="M102 14v918q0 47 65.5 79.5t158.5 32.5q92 0 156.5 -32.5t64.5 -79.5v-307q0 -32 -19.5 -59t-50.5 -36q31 -10 50.5 -36.5t19.5 -57.5v-317q0 -57 -64.5 -98t-156.5 -41q-108 0 -224 34zM240 109q53 -17 86 -17q39 0 62.5 19.5t23.5 48.5v266q0 17 -25.5 30t-60.5 13h-86 v-360zM240 592h86q35 0 60.5 12t25.5 29v254q0 19 -25.5 32t-60.5 13q-37 0 -61.5 -13t-24.5 -32v-295z" />
<glyph unicode="c" horiz-adv-x="616" d="M102 92v840q0 47 65.5 79.5t158.5 32.5q92 0 156.5 -32.5t64.5 -79.5v-133q0 -23 -68 -23q-67 0 -67 23v90q0 17 -25.5 30t-60.5 13q-36 0 -61 -12.5t-25 -30.5v-754q0 -18 25 -30.5t61 -12.5q35 0 60.5 13t25.5 30v90q0 23 67 23q68 0 68 -23v-133q0 -47 -64.5 -79.5 t-156.5 -32.5q-93 0 -158.5 32.5t-65.5 79.5z" />
<glyph unicode="d" d="M102 14v996q116 34 224 34q92 0 156.5 -41t64.5 -98v-786q0 -57 -64.5 -98t-156.5 -41q-108 0 -224 34zM240 109q53 -17 86 -17q39 0 62.5 19.5t23.5 48.5v704q0 29 -23.5 48.5t-62.5 19.5q-33 0 -86 -17v-806z" />
<glyph unicode="e" horiz-adv-x="616" d="M102 92v840q0 47 65.5 79.5t158.5 32.5q92 0 156.5 -32.5t64.5 -79.5v-133q0 -23 -68 -23q-67 0 -67 23v88q0 19 -25.5 32t-60.5 13q-37 0 -61.5 -13t-24.5 -32v-295h239q9 0 16 -18.5t7 -43.5q0 -26 -7 -43.5t-16 -17.5h-239v-334q0 -18 25 -30.5t61 -12.5q35 0 60.5 13 t25.5 30v90q0 23 67 23q68 0 68 -23v-133q0 -47 -64.5 -79.5t-156.5 -32.5q-93 0 -158.5 32.5t-65.5 79.5z" />
<glyph unicode="f" horiz-adv-x="538" d="M29 963q0 26 6.5 43.5t15.5 17.5h103v240q0 46 65.5 78t157.5 32h86q22 0 22 -61q0 -62 -22 -62h-86q-35 0 -60.5 -12t-25.5 -29v-186h188q23 0 23 -61q0 -27 -6.5 -44.5t-16.5 -17.5h-188v-887q0 -10 -20 -17t-48 -7q-29 0 -49 7t-20 17v887h-103q-9 0 -15.5 18t-6.5 44 z" />
<glyph unicode="g" horiz-adv-x="616" d="M86 150q0 37 43 66t111 40v172q-68 9 -111 39t-43 68v397q0 47 65 79.5t158 32.5q92 0 156.5 -32.5t64.5 -79.5v-397q0 -38 -42.5 -68t-110.5 -39v-172q68 -11 110.5 -40t42.5 -66v-400q0 -47 -64.5 -79.5t-156.5 -32.5q-93 0 -158 32.5t-65 79.5v400zM223 104v-311 q0 -17 24.5 -29t61.5 -12q35 0 60.5 12t25.5 29v311q0 18 -25 30.5t-61 12.5q-37 0 -61.5 -12t-24.5 -31zM223 580q0 -19 24.5 -32t61.5 -13q35 0 60.5 13t25.5 32v309q0 17 -25.5 30t-60.5 13q-36 0 -61 -12.5t-25 -30.5v-309z" />
<glyph unicode="h" d="M102 14v1338q0 22 68 22q70 0 70 -22v-332q53 24 106 24q93 0 147 -34.5t54 -77.5v-918q0 -10 -19.5 -17t-48.5 -7t-48 7t-19 17v875q0 17 -25.5 30t-60.5 13q-36 0 -61 -12.5t-25 -30.5v-875q0 -10 -20 -17t-50 -7q-28 0 -48 7t-20 17z" />
<glyph unicode="i" horiz-adv-x="342" d="M102 14v996q0 10 20 17t48 7q30 0 50 -7t20 -17v-996q0 -10 -20 -17t-50 -7q-28 0 -48 7t-20 17zM102 1262v90q0 22 68 22q70 0 70 -22v-90q0 -10 -20 -16.5t-50 -6.5q-29 0 -48.5 6.5t-19.5 16.5z" />
<glyph unicode="j" horiz-adv-x="342" d="M-92 -289q0 62 22 62h86q35 0 60.5 12t25.5 29v1196q0 10 20 17t48 7q30 0 50 -7t20 -17v-1250q0 -46 -66 -78t-158 -32h-86q-22 0 -22 61zM102 1262v90q0 22 68 22q70 0 70 -22v-90q0 -10 -20 -16.5t-50 -6.5q-29 0 -48.5 6.5t-19.5 16.5z" />
<glyph unicode="k" d="M102 14v1338q0 22 68 22q70 0 70 -22v-756h86q35 0 60.5 12t25.5 29v373q0 10 19 17t48 7t48.5 -7t19.5 -17v-383q0 -32 -19.5 -58t-50.5 -37q31 -11 50.5 -36.5t19.5 -57.5v-424q0 -10 -19.5 -17t-48.5 -7t-48 7t-19 17v416q0 17 -25.5 30t-60.5 13h-86v-459 q0 -10 -20 -17t-50 -7q-28 0 -48 7t-20 17z" />
<glyph unicode="l" horiz-adv-x="374" d="M102 92v1260q0 22 68 22q70 0 70 -22v-1207q0 -43 86 -43q9 0 15.5 -17.5t6.5 -43.5t-6.5 -43.5t-15.5 -17.5q-112 0 -168 32t-56 80z" />
<glyph unicode="m" horiz-adv-x="903" d="M102 14v908q0 48 59 80t150 32q35 0 76 -12.5t66 -28.5q23 16 63.5 28.5t75.5 12.5q91 0 150 -32t59 -80v-908q0 -10 -19.5 -17t-48.5 -7t-48 7t-19 17v865q0 18 -19.5 29.5t-54.5 11.5q-34 0 -53 -11.5t-19 -29.5v-865q0 -10 -19.5 -17t-47.5 -7q-30 0 -50 7t-20 17v865 q0 18 -19 29.5t-53 11.5t-52.5 -11.5t-18.5 -29.5v-865q0 -10 -20 -17t-50 -7q-28 0 -48 7t-20 17z" />
<glyph unicode="n" d="M102 14v918q0 47 65.5 79.5t158.5 32.5q92 0 156.5 -32.5t64.5 -79.5v-918q0 -10 -19.5 -17t-48.5 -7t-48 7t-19 17v875q0 17 -25.5 30t-60.5 13q-36 0 -61 -12.5t-25 -30.5v-875q0 -10 -20 -17t-50 -7q-28 0 -48 7t-20 17z" />
<glyph unicode="o" d="M102 92v840q0 47 65.5 79.5t158.5 32.5q92 0 156.5 -32.5t64.5 -79.5v-840q0 -47 -64.5 -79.5t-156.5 -32.5q-93 0 -158.5 32.5t-65.5 79.5zM240 135q0 -18 25 -30.5t61 -12.5q35 0 60.5 13t25.5 30v754q0 17 -25.5 30t-60.5 13q-36 0 -61 -12.5t-25 -30.5v-754z" />
<glyph unicode="p" d="M102 -328v1260q0 47 65.5 79.5t158.5 32.5q92 0 156.5 -32.5t64.5 -79.5v-840q0 -43 -54 -77.5t-147 -34.5q-53 0 -106 24v-332q0 -22 -70 -22q-68 0 -68 22zM240 135q0 -18 25 -30.5t61 -12.5q35 0 60.5 13t25.5 30v754q0 17 -25.5 30t-60.5 13q-36 0 -61 -12.5 t-25 -30.5v-754z" />
<glyph unicode="q" d="M102 92v840q0 47 65.5 79.5t158.5 32.5q92 0 156.5 -32.5t64.5 -79.5v-840q0 -38 -43 -67.5t-111 -38.5v-314q0 -22 -67 -22q-70 0 -70 22v314q-68 9 -111 38.5t-43 67.5zM240 135q0 -18 25 -30.5t61 -12.5q35 0 60.5 13t25.5 30v752q0 19 -25.5 32t-60.5 13 q-37 0 -61.5 -13t-24.5 -32v-752z" />
<glyph unicode="r" d="M102 14v918q0 47 65.5 79.5t158.5 32.5q92 0 156.5 -32.5t64.5 -79.5v-307q0 -32 -19.5 -59t-50.5 -36q31 -10 50.5 -36.5t19.5 -57.5v-422q0 -10 -19.5 -17t-48.5 -7t-48 7t-19 17v412q0 17 -25.5 30t-60.5 13h-86v-455q0 -10 -20 -17t-50 -7q-28 0 -48 7t-20 17z M240 592h86q35 0 60.5 12t25.5 29v254q0 19 -25.5 32t-60.5 13q-37 0 -61.5 -13t-24.5 -32v-295z" />
<glyph unicode="s" horiz-adv-x="581" d="M68 90v135q0 10 19.5 16.5t49.5 6.5q29 0 48.5 -6.5t19.5 -16.5v-90q0 -17 25.5 -30t60.5 -13t60.5 13t25.5 30v281q0 17 -25.5 29t-60.5 12q-93 0 -158 32.5t-65 79.5v363q0 47 65 79.5t158 32.5t158 -32.5t65 -79.5v-133q0 -10 -20 -16.5t-50 -6.5q-28 0 -47.5 6.5 t-19.5 16.5v90q0 17 -25.5 30t-60.5 13t-60.5 -13t-25.5 -30v-264q0 -19 25.5 -32t60.5 -13q92 0 157.5 -32.5t65.5 -78.5v-379q0 -46 -65.5 -78t-157.5 -32t-157.5 32t-65.5 78z" />
<glyph unicode="t" horiz-adv-x="628" d="M31 963q0 26 7 43.5t17 17.5h518q23 0 23 -61q0 -27 -6.5 -44.5t-16.5 -17.5h-190v-887q0 -10 -20 -17t-50 -7q-28 0 -47.5 7t-19.5 17v887h-191q-10 0 -17 18t-7 44z" />
<glyph unicode="u" d="M102 92v918q0 10 20 17t48 7q30 0 50 -7t20 -17v-873q0 -19 24.5 -32t61.5 -13q35 0 60.5 13t25.5 32v873q0 10 19 17t48 7t48.5 -7t19.5 -17v-918q0 -47 -64.5 -79.5t-156.5 -32.5q-93 0 -158.5 32.5t-65.5 79.5z" />
<glyph unicode="v" d="M102 682v328q0 10 20 17t48 7q30 0 50 -7t20 -17v-328q0 -313 86 -539q86 235 86 539v328q0 10 19 17t48 7t48.5 -7t19.5 -17v-328q0 -184 -45.5 -380.5t-110.5 -295.5q-11 -16 -65 -16q-55 0 -66 16q-65 99 -111.5 296t-46.5 380z" />
<glyph unicode="w" horiz-adv-x="903" d="M102 92v918q0 10 20 17t48 7q30 0 50 -7t20 -17v-873q0 -20 18.5 -32.5t52.5 -12.5t53 12.5t19 32.5v873q0 10 20 17t50 7q28 0 47.5 -7t19.5 -17v-873q0 -20 19 -32.5t53 -12.5q35 0 54.5 12.5t19.5 32.5v873q0 10 19 17t48 7t48.5 -7t19.5 -17v-918q0 -48 -59 -80 t-150 -32q-35 0 -75.5 12t-63.5 28q-25 -16 -66 -28t-76 -12q-91 0 -150 32t-59 80z" />
<glyph unicode="x" d="M102 14v424q0 32 19.5 57.5t50.5 36.5q-31 11 -50.5 37t-19.5 58v383q0 10 20 17t48 7q30 0 50 -7t20 -17v-377q0 -19 24.5 -31t61.5 -12q36 0 61 12.5t25 30.5v377q0 10 19 17t48 7t48.5 -7t19.5 -17v-383q0 -32 -19.5 -58t-50.5 -37q31 -11 50.5 -36.5t19.5 -57.5v-424 q0 -10 -19.5 -17t-48.5 -7t-48 7t-19 17v420q0 17 -25.5 30t-60.5 13q-36 0 -61 -12.5t-25 -30.5v-420q0 -10 -20 -17t-50 -7q-28 0 -48 7t-20 17z" />
<glyph unicode="y" horiz-adv-x="581" d="M68 586v424q0 10 20 17t49 7q28 0 48 -7t20 -17v-379q0 -18 25 -30.5t61 -12.5t61 12.5t25 30.5v379q0 10 19.5 17t47.5 7q30 0 50 -7t20 -17v-424q0 -38 -43.5 -67t-112.5 -40v-465q0 -10 -19 -17t-48 -7t-48.5 7t-19.5 17v465q-68 11 -111.5 40t-43.5 67z" />
<glyph unicode="z" horiz-adv-x="581" d="M68 0v469q0 46 65.5 78.5t157.5 32.5q35 0 60.5 13t25.5 32v276h-285q-10 0 -17 18t-7 44t7 43.5t17 17.5h422v-455q0 -47 -65 -79.5t-158 -32.5q-35 0 -60.5 -12t-25.5 -29v-293h284q11 0 18 -18t7 -44t-7 -43.5t-18 -17.5h-421z" />
<glyph unicode="{" horiz-adv-x="546" d="M29 582q0 26 6.5 43.5t15.5 17.5h154v758q0 46 65.5 78t157.5 32h86q9 0 16 -17.5t7 -43.5t-7 -43.5t-16 -17.5h-86q-37 0 -61.5 -12t-24.5 -31v-1532q0 -17 24.5 -29t61.5 -12h86q9 0 16 -18.5t7 -43.5q0 -26 -7 -43.5t-16 -17.5h-86q-92 0 -157.5 32t-65.5 78v760h-154 q-9 0 -15.5 18t-6.5 44z" />
<glyph unicode="|" horiz-adv-x="477" d="M170 -158v1680q0 10 20 17t50 7q28 0 47.5 -7t19.5 -17v-1680q0 -9 -19.5 -15.5t-47.5 -6.5q-29 0 -49.5 6.5t-20.5 15.5z" />
<glyph unicode="}" horiz-adv-x="546" d="M10 -289q0 26 6.5 44t16.5 18h86q35 0 60.5 12t25.5 29v1532q0 18 -25 30.5t-61 12.5h-86q-23 0 -23 61t23 61h86q92 0 157.5 -32t65.5 -78v-758h152q10 0 17 -17.5t7 -43.5t-7 -44t-17 -18h-152v-760q0 -46 -65.5 -78t-157.5 -32h-86q-23 0 -23 61z" />
<glyph unicode="~" horiz-adv-x="751" d="M35 573l147 148q34 32 103 9t135 -89q25 -25 51.5 -33.5t38.5 4.5l108 107q6 6 25 -3.5t39 -29.5q21 -19 30 -38t3 -25l-148 -146q-31 -33 -99.5 -10t-133.5 88q-26 25 -53 34t-39 -3l-109 -109q-6 -8 -24.5 1.5t-40.5 31.5q-20 19 -29.5 37t-3.5 26z" />
<glyph horiz-adv-x="0" />
<glyph unicode="&#xa0;" horiz-adv-x="342" d="M0 0z" />
<glyph unicode="&#xa1;" horiz-adv-x="342" d="M102 -328v998q0 9 20 15.5t48 6.5q29 0 49.5 -6.5t20.5 -15.5v-998q0 -22 -70 -22q-68 0 -68 22zM102 920v90q0 10 20 17t48 7q30 0 50 -7t20 -17v-90q0 -9 -20.5 -16t-49.5 -7q-27 0 -47.5 7t-20.5 16z" />
<glyph unicode="&#xa2;" horiz-adv-x="616" d="M102 227v910q0 38 43 67.5t111 38.5v143q0 9 20.5 16t49.5 7q27 0 47 -7t20 -16v-143q68 -9 111 -38.5t43 -67.5v-133q0 -23 -68 -23q-67 0 -67 23v90q0 17 -25.5 30t-60.5 13q-36 0 -61 -12.5t-25 -30.5v-822q0 -19 24.5 -31t61.5 -12q36 0 61 12.5t25 30.5v90 q0 9 19 16t48 7t48.5 -7t19.5 -16v-135q0 -37 -43 -66t-111 -40v-141q0 -10 -19.5 -16.5t-47.5 -6.5q-30 0 -50 6.5t-20 16.5v141q-68 11 -111 40t-43 66z" />
<glyph unicode="&#xa3;" horiz-adv-x="632" d="M29 684q0 26 6.5 43.5t15.5 17.5h103v519q0 46 65.5 78t157.5 32h86q22 0 22 -61q0 -62 -22 -62h-86q-35 0 -60.5 -12t-25.5 -29v-465h188q23 0 23 -61t-23 -61h-188v-488q0 -17 25.5 -30t60.5 -13t60.5 13t25.5 30v90q0 10 19.5 16.5t47.5 6.5q30 0 50 -6.5t20 -16.5 v-133q0 -47 -65 -79.5t-158 -32.5t-158 32.5t-65 79.5v531h-103q-9 0 -15.5 17.5t-6.5 43.5z" />
<glyph unicode="&#xa5;" horiz-adv-x="581" d="M59 375q0 61 23 61h141v213q-68 11 -111.5 40.5t-43.5 66.5v596q0 22 69 22q68 0 68 -22v-551q0 -18 25 -30.5t61 -12.5t61 12.5t25 30.5v551q0 22 67 22q70 0 70 -22v-596q0 -37 -44 -66.5t-112 -40.5v-213h142q22 0 22 -61q0 -62 -22 -62h-142v-299q0 -10 -19 -17 t-48 -7t-48.5 7t-19.5 17v299h-141q-10 0 -16.5 18t-6.5 44z" />
<glyph unicode="&#xa6;" horiz-adv-x="477" d="M170 -158v721q0 10 20.5 17.5t49.5 7.5q28 0 47.5 -7.5t19.5 -17.5v-721q0 -9 -19.5 -15.5t-47.5 -6.5q-29 0 -49.5 6.5t-20.5 15.5zM170 801v721q0 9 20.5 15.5t49.5 6.5q28 0 47.5 -6.5t19.5 -15.5v-721q0 -10 -19.5 -17.5t-47.5 -7.5q-29 0 -49.5 7.5t-20.5 17.5z" />
<glyph unicode="&#xa7;" d="M102 -117q0 10 20 17.5t48 7.5q29 0 49.5 -7.5t20.5 -17.5v-90q0 -17 24.5 -29t61.5 -12q35 0 60.5 12t25.5 29v357q0 17 -25 28.5t-61 11.5q-93 0 -158.5 33t-65.5 80v375q0 31 19.5 57.5t50.5 36.5q-31 9 -50.5 35.5t-19.5 58.5v408q0 47 65.5 79.5t158.5 32.5 q92 0 156.5 -32.5t64.5 -79.5v-133q0 -11 -19.5 -18t-48.5 -7t-48 7t-19 18v90q0 17 -25.5 29t-60.5 12q-37 0 -61.5 -12t-24.5 -29v-357q0 -17 24.5 -28.5t61.5 -11.5q92 0 156.5 -33t64.5 -80v-375q0 -31 -19.5 -57.5t-50.5 -36.5q31 -9 50.5 -35.5t19.5 -58.5v-410 q0 -46 -64.5 -78t-156.5 -32t-158 32t-66 78v135zM240 346q0 -17 24.5 -29t61.5 -12q35 0 60.5 12t25.5 29v332q0 17 -25.5 29t-60.5 12q-37 0 -61.5 -12t-24.5 -29v-332z" />
<glyph unicode="&#xa8;" d="M137 1262v90q0 22 68 22q67 0 67 -22v-90q0 -23 -67 -23q-68 0 -68 23zM377 1262v90q0 22 67 22q70 0 70 -22v-90q0 -10 -20 -16.5t-50 -6.5q-28 0 -47.5 6.5t-19.5 16.5z" />
<glyph unicode="&#xa9;" horiz-adv-x="956" d="M102 162v1040q0 76 110 130t265 54q103 0 189.5 -24.5t137 -67t50.5 -92.5v-1040q0 -75 -110.5 -128.5t-266.5 -53.5q-155 0 -265 53.5t-110 128.5zM256 262q0 -47 64.5 -79.5t156.5 -32.5q93 0 158 32.5t65 79.5v133q0 10 -19.5 17.5t-47.5 7.5t-49 -7.5t-21 -17.5v-90 q0 -17 -24.5 -29t-61.5 -12q-34 0 -60 12t-26 29v754q0 18 25.5 30.5t60.5 12.5q37 0 61.5 -12t24.5 -31v-90q0 -9 21 -16t49 -7q27 0 47 7t20 16v135q0 46 -65.5 78t-157.5 32t-156.5 -32t-64.5 -78v-842z" />
<glyph unicode="&#xaa;" d="M92 61q0 26 7 44t18 18h418q9 0 15.5 -18t6.5 -44t-6.5 -43.5t-15.5 -17.5h-418q-11 0 -18 17.5t-7 43.5zM102 354v920q0 47 65.5 79.5t158.5 32.5q92 0 156.5 -32.5t64.5 -79.5v-920q0 -9 -19.5 -15.5t-48.5 -6.5t-48 6.5t-19 15.5v455h-172v-455q0 -9 -20.5 -15.5 t-49.5 -6.5q-28 0 -48 6.5t-20 15.5zM240 932h172v299q0 17 -25.5 29t-60.5 12q-37 0 -61.5 -12t-24.5 -29v-299z" />
<glyph unicode="&#xab;" horiz-adv-x="800" d="M102 512l222 498q4 10 27 17t52 7q28 0 44.5 -7t13.5 -17l-221 -498l221 -498q3 -10 -13.5 -17t-44.5 -7q-29 0 -52 7t-27 17zM373 512l221 498q4 10 27 17t53 7q28 0 44 -7t13 -17l-221 -498l221 -498q3 -10 -13 -17t-44 -7q-30 0 -53 7t-27 17z" />
<glyph unicode="&#xad;" horiz-adv-x="591" d="M59 598q0 61 23 61h428q9 0 15.5 -17.5t6.5 -43.5t-6.5 -43.5t-15.5 -17.5h-428q-23 0 -23 61z" />
<glyph unicode="&#xae;" horiz-adv-x="956" d="M102 162v1040q0 76 110 130t265 54q103 0 189.5 -24.5t137 -67t50.5 -92.5v-1040q0 -75 -110.5 -128.5t-266.5 -53.5q-155 0 -265 53.5t-110 128.5zM256 184q0 -22 68 -22q67 0 67 22v459h86q37 0 61.5 -12t24.5 -31v-416q0 -10 20.5 -16t49.5 -6q67 0 67 22v426 q0 31 -19 58t-50 37q31 11 50 36.5t19 57.5v305q0 46 -65.5 78t-157.5 32t-156.5 -32t-64.5 -78v-920zM391 766v293q0 18 25.5 30.5t60.5 12.5q37 0 61.5 -12t24.5 -31v-250q0 -19 -24.5 -31t-61.5 -12h-86z" />
<glyph unicode="&#xaf;" d="M88 1305q0 25 6.5 43t16.5 18h428q10 0 17 -18t7 -43q0 -26 -7 -44t-17 -18h-428q-10 0 -16.5 17.5t-6.5 44.5z" />
<glyph unicode="&#xb0;" d="M102 772v502q0 47 65.5 79.5t158.5 32.5q92 0 156.5 -32.5t64.5 -79.5v-502q0 -46 -64.5 -78t-156.5 -32t-158 32t-66 78zM240 817q0 -17 24.5 -29t61.5 -12q35 0 60.5 12t25.5 29v414q0 17 -25.5 29t-60.5 12q-37 0 -61.5 -12t-24.5 -29v-414z" />
<glyph unicode="&#xb1;" horiz-adv-x="706" d="M59 61q0 27 6.5 44.5t16.5 17.5h543q9 0 15.5 -18t6.5 -44t-6.5 -43.5t-15.5 -17.5h-543q-23 0 -23 61zM59 598q0 61 23 61h209l2 211q0 9 17.5 16t43.5 7q24 0 42 -7t18 -16v-211h211q9 0 15.5 -17.5t6.5 -43.5t-6.5 -43.5t-15.5 -17.5h-211v-211q0 -9 -17.5 -15 t-42.5 -6q-26 0 -43.5 6t-17.5 15l-2 211h-209q-23 0 -23 61z" />
<glyph unicode="&#xb2;" horiz-adv-x="571" d="M68 342v430q0 46 65.5 78.5t157.5 32.5q35 0 60.5 13t25.5 32v303q0 17 -25.5 29t-60.5 12t-60.5 -12t-25.5 -29v-90q0 -10 -20 -17.5t-48 -7.5q-29 0 -49 7t-20 18v133q0 47 65 79.5t158 32.5t158 -32.5t65 -79.5v-402q0 -47 -65 -79.5t-158 -32.5q-35 0 -60.5 -12 t-25.5 -29v-254h295q22 0 22 -62q0 -61 -22 -61h-432z" />
<glyph unicode="&#xb3;" horiz-adv-x="616" d="M68 432v135q0 9 20 16t49 7q27 0 47.5 -7t20.5 -16v-90q0 -18 25 -30.5t61 -12.5t61 12.5t25 30.5v291q0 17 -25.5 29t-60.5 12h-86q-9 0 -16 18t-7 43q0 26 7 44t16 18h86q35 0 60.5 13t25.5 30v254q0 18 -25 30.5t-61 12.5t-61 -12.5t-25 -30.5v-88q0 -10 -20 -17.5 t-48 -7.5q-29 0 -49 7t-20 18v133q0 47 65 79.5t158 32.5t158 -32.5t65 -79.5v-309q0 -31 -19.5 -58t-50.5 -37q31 -9 50.5 -35.5t19.5 -58.5v-344q0 -46 -65.5 -78t-157.5 -32t-157.5 32t-65.5 78z" />
<glyph unicode="&#xb4;" d="M256 1143l111 383q8 24 67 24q19 0 35.5 -3.5t25.5 -9t7 -11.5l-109 -383q-8 -23 -67 -23q-19 0 -36 3t-26.5 8.5t-7.5 11.5z" />
<glyph unicode="&#xb5;" d="M102 -328v1338q0 10 20 17t48 7q30 0 50 -7t20 -17v-873q0 -19 24.5 -32t61.5 -13q35 0 60.5 13t25.5 32v873q0 10 19 17t48 7t48.5 -7t19.5 -17v-918q0 -43 -54 -77.5t-147 -34.5q-53 0 -106 24v-332q0 -22 -70 -22q-68 0 -68 22z" />
<glyph unicode="&#xb6;" horiz-adv-x="622" d="M76 633v641q0 47 64.5 79.5t156.5 32.5q93 0 158 -32.5t65 -79.5v-1602q0 -22 -67 -22q-70 0 -70 22v850h-86q-92 0 -156.5 32.5t-64.5 78.5z" />
<glyph unicode="&#xb7;" horiz-adv-x="342" d="M102 469v90q0 10 20 17.5t48 7.5q29 0 49.5 -7.5t20.5 -17.5v-90q0 -9 -20.5 -16t-49.5 -7q-27 0 -47.5 7t-20.5 16z" />
<glyph unicode="&#xb8;" horiz-adv-x="616" d="M166 -328l110 383q3 10 21.5 17.5t46.5 7.5q19 0 35.5 -3.5t25.5 -9.5t7 -12l-109 -383q-7 -22 -67 -22q-19 0 -36 3t-26.5 8t-7.5 11z" />
<glyph unicode="&#xb9;" horiz-adv-x="477" d="M43 1305q0 25 7.5 43t17.5 18h307v-1012q0 -9 -19.5 -15.5t-48.5 -6.5t-48 6.5t-19 15.5v889h-172q-11 0 -18 18t-7 44z" />
<glyph unicode="&#xba;" d="M92 61q0 26 7 44t18 18h418q9 0 15.5 -18t6.5 -44t-6.5 -43.5t-15.5 -17.5h-418q-11 0 -18 17.5t-7 43.5zM102 432v842q0 47 65.5 79.5t158.5 32.5q92 0 156.5 -32.5t64.5 -79.5v-842q0 -46 -64.5 -78t-156.5 -32t-158 32t-66 78zM240 477q0 -19 24.5 -31t61.5 -12 q36 0 61 12.5t25 30.5v754q0 17 -25.5 29t-60.5 12q-37 0 -61.5 -12t-24.5 -29v-754z" />
<glyph unicode="&#xbb;" horiz-adv-x="800" d="M70 14l221 498l-221 498q-4 10 12.5 17t44.5 7q66 0 80 -24l221 -498l-221 -498q-14 -24 -80 -24q-28 0 -44.5 7t-12.5 17zM338 14l223 498l-223 498q-3 11 13.5 17.5t45.5 6.5t51.5 -7t26.5 -17l223 -498l-223 -498q-4 -10 -26.5 -17t-51.5 -7t-45.5 6.5t-13.5 17.5z " />
<glyph unicode="&#xbc;" horiz-adv-x="1505" d="M129 1305q0 25 7.5 43t17.5 18h307v-1012q0 -9 -19.5 -15.5t-48.5 -6.5t-48 6.5t-19 15.5v889h-172q-11 0 -18 18t-7 44zM684 14v1338q0 22 68 22q69 0 69 -22v-1338q0 -10 -20 -17t-49 -7q-28 0 -48 7t-20 17zM956 272v738q0 10 20 17t50 7q28 0 48 -7t20 -17v-684 q0 -18 25 -30.5t61 -12.5h86v727q0 10 19.5 17t47.5 7q30 0 50 -7t20 -17v-996q0 -10 -20 -17t-50 -7q-28 0 -47.5 7t-19.5 17v146h-86q-93 0 -158.5 32.5t-65.5 79.5z" />
<glyph unicode="&#xbd;" horiz-adv-x="1505" d="M129 1305q0 25 7.5 43t17.5 18h307v-1012q0 -9 -19.5 -15.5t-48.5 -6.5t-48 6.5t-19 15.5v889h-172q-11 0 -18 18t-7 44zM684 14v1338q0 22 68 22q69 0 69 -22v-1338q0 -10 -20 -17t-49 -7q-28 0 -48 7t-20 17zM956 0v432q0 46 66 78.5t158 32.5q36 0 61 12.5t25 30.5 v303q0 17 -25.5 30t-60.5 13t-60.5 -13t-25.5 -30v-90q0 -10 -19.5 -16.5t-48.5 -6.5q-30 0 -50 6.5t-20 16.5v135q0 46 66 78t158 32t157.5 -32t65.5 -78v-404q0 -46 -65.5 -78t-157.5 -32q-35 0 -60.5 -13t-25.5 -30v-254h295q22 0 22 -62q0 -61 -22 -61h-433z" />
<glyph unicode="&#xbe;" horiz-adv-x="1505" d="M102 432v135q0 9 20.5 16t47.5 7q29 0 49.5 -7t20.5 -16v-90q0 -19 24.5 -31t61.5 -12q36 0 61 12.5t25 30.5v291q0 17 -25.5 29t-60.5 12h-86q-9 0 -17 18.5t-8 42.5q0 25 8 43.5t17 18.5h86q35 0 60.5 13t25.5 30v254q0 18 -25 30.5t-61 12.5q-37 0 -61.5 -12 t-24.5 -31v-88q0 -10 -20.5 -17.5t-49.5 -7.5q-28 0 -48 7.5t-20 17.5v133q0 47 65.5 79.5t158.5 32.5q92 0 156.5 -32.5t64.5 -79.5v-309q0 -31 -19.5 -58t-50.5 -37q31 -9 50.5 -35.5t19.5 -58.5v-344q0 -46 -64.5 -78t-156.5 -32t-158 32t-66 78zM684 14v1338q0 22 68 22 q69 0 69 -22v-1338q0 -10 -20 -17t-49 -7q-28 0 -48 7t-20 17zM956 272v738q0 10 20 17t50 7q28 0 48 -7t20 -17v-684q0 -18 25 -30.5t61 -12.5h86v727q0 10 19.5 17t47.5 7q30 0 50 -7t20 -17v-996q0 -10 -20 -17t-50 -7q-28 0 -47.5 7t-19.5 17v146h-86q-93 0 -158.5 32.5 t-65.5 79.5z" />
<glyph unicode="&#xbf;" horiz-adv-x="581" d="M68 -250v555q0 37 43.5 66.5t111.5 40.5v258q0 9 19.5 15.5t48.5 6.5t48 -6.5t19 -15.5v-348q0 -9 -19 -16t-48 -7q-36 0 -61 -12.5t-25 -30.5v-463q0 -17 25.5 -29t60.5 -12t60.5 12t25.5 29v90q0 10 19.5 17.5t47.5 7.5q29 0 49.5 -7.5t20.5 -17.5v-133 q0 -47 -65 -79.5t-158 -32.5t-158 32.5t-65 79.5zM223 920v90q0 10 19.5 17t48.5 7t48 -7t19 -17v-90q0 -9 -19 -16t-48 -7t-48.5 7t-19.5 16z" />
<glyph unicode="&#xc0;" horiz-adv-x="636" d="M88 92v518q0 47 65.5 80t157.5 33h86v508q0 17 -25.5 29t-60.5 12t-60.5 -12t-25.5 -29v-90q0 -10 -19.5 -17.5t-47.5 -7.5q-29 0 -49.5 7.5t-20.5 17.5v135q0 46 65.5 78t157.5 32t158 -32t66 -78v-1184q0 -47 -65.5 -79.5t-158.5 -32.5t-158 32.5t-65 79.5zM133 1868 q-2 6 7.5 11.5t26 9t34.5 3.5q28 0 47 -7t22 -17l109 -383q2 -6 -7.5 -11.5t-26 -8.5t-34.5 -3q-61 0 -69 23zM225 135q0 -17 25.5 -30t60.5 -13t60.5 13t25.5 30v465h-86q-35 0 -60.5 -13t-25.5 -30v-422z" />
<glyph unicode="&#xc1;" horiz-adv-x="636" d="M88 92v518q0 47 65.5 80t157.5 33h86v508q0 17 -25.5 29t-60.5 12t-60.5 -12t-25.5 -29v-90q0 -10 -19.5 -17.5t-47.5 -7.5q-29 0 -49.5 7.5t-20.5 17.5v135q0 46 65.5 78t157.5 32t158 -32t66 -78v-1184q0 -47 -65.5 -79.5t-158.5 -32.5t-158 32.5t-65 79.5zM225 135 q0 -17 25.5 -30t60.5 -13t60.5 13t25.5 30v465h-86q-35 0 -60.5 -13t-25.5 -30v-422zM242 1485l110 383q3 10 21.5 17t46.5 7q19 0 35.5 -3.5t25 -9t6.5 -11.5l-108 -383q-3 -9 -22 -16t-46 -7q-19 0 -36 3t-26 8.5t-7 11.5z" />
<glyph unicode="&#xc2;" horiz-adv-x="636" d="M88 92v518q0 47 65.5 80t157.5 33h86v508q0 17 -25.5 29t-60.5 12t-60.5 -12t-25.5 -29v-90q0 -10 -19.5 -17.5t-47.5 -7.5q-29 0 -49.5 7.5t-20.5 17.5v135q0 46 65.5 78t157.5 32t158 -32t66 -78v-1184q0 -47 -65.5 -79.5t-158.5 -32.5t-158 32.5t-65 79.5zM98 1536 l144 332q12 24 69 24q56 0 68 -24l145 -332q2 -6 -7 -12t-26 -9.5t-36 -3.5q-55 0 -68 25l-76 176l-78 -176q-3 -10 -21.5 -17.5t-45.5 -7.5q-19 0 -36 3.5t-26 9.5t-6 12zM225 135q0 -17 25.5 -30t60.5 -13t60.5 13t25.5 30v465h-86q-35 0 -60.5 -13t-25.5 -30v-422z" />
<glyph unicode="&#xc3;" horiz-adv-x="636" d="M88 92v518q0 47 65.5 80t157.5 33h86v508q0 17 -25.5 29t-60.5 12t-60.5 -12t-25.5 -29v-90q0 -10 -19.5 -17.5t-47.5 -7.5q-29 0 -49.5 7.5t-20.5 17.5v135q0 46 65.5 78t157.5 32t158 -32t66 -78v-1184q0 -47 -65.5 -79.5t-158.5 -32.5t-158 32.5t-65 79.5zM88 1485 v135q0 47 65.5 80t157.5 33q36 0 61 12.5t25 30.5v92q0 22 68 22q70 0 70 -22v-137q0 -46 -66 -78.5t-158 -32.5q-35 0 -60.5 -13t-25.5 -30v-92q0 -10 -19.5 -17.5t-47.5 -7.5q-29 0 -49.5 7.5t-20.5 17.5zM225 135q0 -17 25.5 -30t60.5 -13t60.5 13t25.5 30v465h-86 q-35 0 -60.5 -13t-25.5 -30v-422z" />
<glyph unicode="&#xc4;" horiz-adv-x="636" d="M88 92v518q0 47 65.5 80t157.5 33h86v508q0 17 -25.5 29t-60.5 12t-60.5 -12t-25.5 -29v-90q0 -10 -19.5 -17.5t-47.5 -7.5q-29 0 -49.5 7.5t-20.5 17.5v135q0 46 65.5 78t157.5 32t158 -32t66 -78v-1184q0 -47 -65.5 -79.5t-158.5 -32.5t-158 32.5t-65 79.5zM123 1604 v90q0 22 67 22q68 0 68 -22v-90q0 -23 -68 -23q-67 0 -67 23zM225 135q0 -17 25.5 -30t60.5 -13t60.5 13t25.5 30v465h-86q-35 0 -60.5 -13t-25.5 -30v-422zM362 1604v90q0 22 68 22q70 0 70 -22v-90q0 -10 -20 -16.5t-50 -6.5q-29 0 -48.5 6.5t-19.5 16.5z" />
<glyph unicode="&#xc5;" horiz-adv-x="636" d="M88 92v518q0 47 65.5 80t157.5 33h86v508q0 17 -25.5 29t-60.5 12t-60.5 -12t-25.5 -29v-90q0 -10 -19.5 -17.5t-47.5 -7.5q-29 0 -49.5 7.5t-20.5 17.5v135q0 46 65.5 78t157.5 32t158 -32t66 -78v-1184q0 -47 -65.5 -79.5t-158.5 -32.5t-158 32.5t-65 79.5zM100 1559 v235q0 43 61.5 73.5t149.5 30.5t149.5 -30.5t61.5 -73.5v-235q0 -43 -62 -74t-149 -31t-149 31t-62 74zM219 1599q0 -20 26.5 -33.5t65.5 -13.5t65.5 13.5t26.5 33.5v156q0 19 -27 32t-65 13t-65 -13t-27 -32v-156zM225 135q0 -17 25.5 -30t60.5 -13t60.5 13t25.5 30v465 h-86q-35 0 -60.5 -13t-25.5 -30v-422z" />
<glyph unicode="&#xc6;" horiz-adv-x="931" d="M88 92v518q0 47 65.5 80t157.5 33h86v508q0 17 -25.5 29t-60.5 12t-60.5 -12t-25.5 -29v-90q0 -10 -19.5 -17.5t-47.5 -7.5q-29 0 -49.5 7.5t-20.5 17.5v133q0 47 65 79.5t158 32.5q99 0 154 -49q58 49 156 49q92 0 156.5 -32.5t64.5 -79.5v-518q0 -47 -64.5 -80 t-156.5 -33h-86v-508q0 -18 25 -30.5t61 -12.5q35 0 60.5 13t25.5 30v90q0 23 67 23q68 0 68 -23v-133q0 -47 -64.5 -79.5t-156.5 -32.5q-96 0 -156 47q-57 -47 -154 -47q-93 0 -158 32.5t-65 79.5zM225 135q0 -17 25.5 -30t60.5 -13t60.5 13t25.5 30v465h-86 q-35 0 -60.5 -13t-25.5 -32v-420zM535 766h86q36 0 61 12.5t25 30.5v422q0 17 -25.5 29t-60.5 12q-37 0 -61.5 -12t-24.5 -29v-465z" />
<glyph unicode="&#xc7;" horiz-adv-x="616" d="M102 92v1182q0 47 65.5 79.5t158.5 32.5q92 0 156.5 -32.5t64.5 -79.5v-133q0 -11 -19.5 -18t-48.5 -7t-48 7t-19 18v90q0 17 -25.5 29t-60.5 12q-37 0 -61.5 -12t-24.5 -29v-1096q0 -18 25 -30.5t61 -12.5q35 0 60.5 13t25.5 30v90q0 23 67 23q68 0 68 -23v-133 q0 -38 -44 -67.5t-112 -38.5l-88 -314q-7 -22 -67 -22q-19 0 -36 3t-26.5 8t-7.5 11l90 314q-69 11 -111.5 39.5t-42.5 66.5z" />
<glyph unicode="&#xc8;" horiz-adv-x="636" d="M102 92v1184q0 46 66 78t158 32t156.5 -32t64.5 -78v-520q0 -47 -64.5 -80t-156.5 -33h-86v-508q0 -18 25 -30.5t61 -12.5q35 0 60.5 13t25.5 30v90q0 23 67 23q68 0 68 -23v-133q0 -47 -64.5 -79.5t-156.5 -32.5q-93 0 -158.5 32.5t-65.5 79.5zM147 1868q-2 6 7.5 11 t26 8t34.5 3q63 0 70 -22l108 -383q2 -6 -7 -12t-25.5 -9.5t-34.5 -3.5q-28 0 -47.5 7.5t-22.5 17.5zM240 766h86q36 0 61 12.5t25 30.5v422q0 17 -25.5 29t-60.5 12q-37 0 -61.5 -12t-24.5 -29v-465z" />
<glyph unicode="&#xc9;" horiz-adv-x="636" d="M102 92v1184q0 46 66 78t158 32t156.5 -32t64.5 -78v-520q0 -47 -64.5 -80t-156.5 -33h-86v-508q0 -18 25 -30.5t61 -12.5q35 0 60.5 13t25.5 30v90q0 23 67 23q68 0 68 -23v-133q0 -47 -64.5 -79.5t-156.5 -32.5q-93 0 -158.5 32.5t-65.5 79.5zM240 766h86q36 0 61 12.5 t25 30.5v422q0 17 -25.5 29t-60.5 12q-37 0 -61.5 -12t-24.5 -29v-465zM256 1485l111 383q8 24 67 24q19 0 35.5 -3.5t25.5 -9t7 -11.5l-109 -383q-8 -23 -67 -23q-19 0 -36 3t-26.5 8.5t-7.5 11.5z" />
<glyph unicode="&#xca;" horiz-adv-x="636" d="M102 92v1184q0 46 66 78t158 32t156.5 -32t64.5 -78v-520q0 -47 -64.5 -80t-156.5 -33h-86v-508q0 -18 25 -30.5t61 -12.5q35 0 60.5 13t25.5 30v90q0 23 67 23q68 0 68 -23v-133q0 -47 -64.5 -79.5t-156.5 -32.5q-93 0 -158.5 32.5t-65.5 79.5zM113 1534l143 334 q11 22 70 22q56 0 67 -22l146 -334q2 -6 -7.5 -11.5t-26.5 -8.5t-36 -3q-57 0 -68 23l-75 176l-78 -176q-8 -23 -68 -23q-19 0 -35.5 3t-25.5 8.5t-6 11.5zM240 766h86q36 0 61 12.5t25 30.5v422q0 17 -25.5 29t-60.5 12q-37 0 -61.5 -12t-24.5 -29v-465z" />
<glyph unicode="&#xcb;" horiz-adv-x="636" d="M102 92v1184q0 46 66 78t158 32t156.5 -32t64.5 -78v-520q0 -47 -64.5 -80t-156.5 -33h-86v-508q0 -18 25 -30.5t61 -12.5q35 0 60.5 13t25.5 30v90q0 23 67 23q68 0 68 -23v-133q0 -47 -64.5 -79.5t-156.5 -32.5q-93 0 -158.5 32.5t-65.5 79.5zM137 1604v90q0 22 68 22 q67 0 67 -22v-90q0 -23 -67 -23q-68 0 -68 23zM240 766h86q36 0 61 12.5t25 30.5v422q0 17 -25.5 29t-60.5 12q-37 0 -61.5 -12t-24.5 -29v-465zM377 1604v90q0 22 67 22q70 0 70 -22v-90q0 -10 -20 -16.5t-50 -6.5q-28 0 -47.5 6.5t-19.5 16.5z" />
<glyph unicode="&#xcc;" horiz-adv-x="342" d="M-6 1868q-2 6 6.5 11t25 8t35.5 3q61 0 68 -22l111 -383q2 -6 -7.5 -12t-26.5 -9.5t-36 -3.5q-26 0 -45.5 7.5t-22.5 17.5zM102 14v1338q0 22 68 22q70 0 70 -22v-1338q0 -10 -20 -17t-50 -7q-28 0 -48 7t-20 17z" />
<glyph unicode="&#xcd;" horiz-adv-x="342" d="M102 14v1338q0 22 68 22q70 0 70 -22v-1338q0 -10 -20 -17t-50 -7q-28 0 -48 7t-20 17zM102 1485l109 383q7 22 70 22q18 0 34.5 -3t25.5 -8t7 -11l-108 -383q-3 -10 -22.5 -17.5t-47.5 -7.5q-18 0 -34.5 3.5t-26 9.5t-7.5 12z" />
<glyph unicode="&#xce;" horiz-adv-x="342" d="M-43 1534l145 334q11 22 68 22q59 0 70 -22l143 -334q3 -6 -6 -11.5t-26 -8.5t-36 -3q-59 0 -67 23l-78 176l-76 -176q-12 -23 -67 -23q-19 0 -36 3t-26.5 8.5t-7.5 11.5zM102 14v1338q0 22 68 22q70 0 70 -22v-1338q0 -10 -20 -17t-50 -7q-28 0 -48 7t-20 17z" />
<glyph unicode="&#xcf;" horiz-adv-x="342" d="M-18 1604v90q0 9 20 15.5t49 6.5q28 0 48 -6.5t20 -15.5v-90q0 -10 -20 -17.5t-48 -7.5q-29 0 -49 7t-20 18zM102 14v1338q0 22 68 22q70 0 70 -22v-1338q0 -10 -20 -17t-50 -7q-28 0 -48 7t-20 17zM223 1604v90q0 9 19.5 15.5t48.5 6.5t48 -6.5t19 -15.5v-90 q0 -11 -19 -18t-48 -7t-48.5 7t-19.5 18z" />
<glyph unicode="&#xd0;" horiz-adv-x="661" d="M18 700q0 27 6.5 44.5t16.5 17.5h72v588q122 36 223 36q92 0 157.5 -41t65.5 -98v-1128q0 -57 -65.5 -98t-157.5 -41q-107 0 -223 34v625h-72q-23 0 -23 61zM250 109q53 -17 86 -17q39 0 62.5 19.5t23.5 48.5v1046q0 28 -23.5 47t-62.5 19q-44 0 -86 -17v-493h86 q9 0 15.5 -18t6.5 -44t-6.5 -43.5t-15.5 -17.5h-86v-530z" />
<glyph unicode="&#xd1;" d="M102 14v1260q0 47 65.5 79.5t158.5 32.5q92 0 156.5 -32.5t64.5 -79.5v-1260q0 -10 -19.5 -17t-48.5 -7t-48 7t-19 17v1217q0 17 -25.5 29t-60.5 12q-37 0 -61.5 -12t-24.5 -29v-1217q0 -10 -20 -17t-50 -7q-28 0 -48 7t-20 17zM102 1485v137q0 46 66 78.5t158 32.5 q35 0 60.5 13t25.5 30v92q0 10 19 17t48 7t48.5 -7t19.5 -17v-135q0 -47 -64.5 -80t-156.5 -33q-37 0 -61.5 -12t-24.5 -31v-92q0 -10 -20 -16.5t-50 -6.5q-29 0 -48.5 6.5t-19.5 16.5z" />
<glyph unicode="&#xd2;" d="M102 92v1182q0 47 65.5 79.5t158.5 32.5q92 0 156.5 -32.5t64.5 -79.5v-1182q0 -47 -64.5 -79.5t-156.5 -32.5q-93 0 -158.5 32.5t-65.5 79.5zM147 1868q-2 6 7.5 11.5t26 9t34.5 3.5q28 0 47.5 -7t22.5 -17l108 -383q2 -6 -7 -11.5t-25.5 -8.5t-34.5 -3q-62 0 -70 23z M240 135q0 -18 25 -30.5t61 -12.5q35 0 60.5 13t25.5 30v1096q0 17 -25.5 29t-60.5 12q-37 0 -61.5 -12t-24.5 -29v-1096z" />
<glyph unicode="&#xd3;" d="M102 92v1182q0 47 65.5 79.5t158.5 32.5q92 0 156.5 -32.5t64.5 -79.5v-1182q0 -47 -64.5 -79.5t-156.5 -32.5q-93 0 -158.5 32.5t-65.5 79.5zM240 135q0 -18 25 -30.5t61 -12.5q35 0 60.5 13t25.5 30v1096q0 17 -25.5 29t-60.5 12q-37 0 -61.5 -12t-24.5 -29v-1096z M256 1485l111 383q8 24 67 24q19 0 35.5 -3.5t25.5 -9t7 -11.5l-109 -383q-8 -23 -67 -23q-19 0 -36 3t-26.5 8.5t-7.5 11.5z" />
<glyph unicode="&#xd4;" d="M102 92v1182q0 47 65.5 79.5t158.5 32.5q92 0 156.5 -32.5t64.5 -79.5v-1182q0 -47 -64.5 -79.5t-156.5 -32.5q-93 0 -158.5 32.5t-65.5 79.5zM113 1534l143 334q11 22 70 22q56 0 67 -22l146 -334q2 -6 -7.5 -11.5t-26.5 -8.5t-36 -3q-57 0 -68 23l-75 176l-78 -176 q-8 -23 -68 -23q-19 0 -35.5 3t-25.5 8.5t-6 11.5zM240 135q0 -18 25 -30.5t61 -12.5q35 0 60.5 13t25.5 30v1096q0 17 -25.5 29t-60.5 12q-37 0 -61.5 -12t-24.5 -29v-1096z" />
<glyph unicode="&#xd5;" d="M102 92v1182q0 47 65.5 79.5t158.5 32.5q92 0 156.5 -32.5t64.5 -79.5v-1182q0 -47 -64.5 -79.5t-156.5 -32.5q-93 0 -158.5 32.5t-65.5 79.5zM102 1485v137q0 46 66 78.5t158 32.5q35 0 60.5 13t25.5 30v92q0 10 19 17t48 7t48.5 -7t19.5 -17v-135q0 -47 -64.5 -80 t-156.5 -33q-37 0 -61.5 -12t-24.5 -31v-92q0 -10 -20 -16.5t-50 -6.5q-29 0 -48.5 6.5t-19.5 16.5zM240 135q0 -18 25 -30.5t61 -12.5q35 0 60.5 13t25.5 30v1096q0 17 -25.5 29t-60.5 12q-37 0 -61.5 -12t-24.5 -29v-1096z" />
<glyph unicode="&#xd6;" d="M102 92v1182q0 47 65.5 79.5t158.5 32.5q92 0 156.5 -32.5t64.5 -79.5v-1182q0 -47 -64.5 -79.5t-156.5 -32.5q-93 0 -158.5 32.5t-65.5 79.5zM137 1604v90q0 22 68 22q67 0 67 -22v-90q0 -23 -67 -23q-68 0 -68 23zM240 135q0 -18 25 -30.5t61 -12.5q35 0 60.5 13 t25.5 30v1096q0 17 -25.5 29t-60.5 12q-37 0 -61.5 -12t-24.5 -29v-1096zM377 1604v90q0 22 67 22q70 0 70 -22v-90q0 -10 -20 -16.5t-50 -6.5q-28 0 -47.5 6.5t-19.5 16.5z" />
<glyph unicode="&#xd7;" horiz-adv-x="706" d="M129 330v174q0 32 19.5 57.5t50.5 36.5q-31 11 -50.5 36.5t-19.5 57.5v182q0 9 21 16t49 7q27 0 47 -7t20 -16v-176q0 -18 25 -30.5t61 -12.5t61 12.5t25 30.5v176q0 9 20.5 16t47.5 7q29 0 49 -7t20 -16v-182q0 -32 -19 -57.5t-50 -36.5q31 -11 50 -36.5t19 -57.5v-174 q0 -11 -20 -18t-49 -7q-28 0 -48 7.5t-20 17.5v170q0 17 -25.5 30t-60.5 13t-60.5 -13t-25.5 -30v-170q0 -10 -19.5 -17.5t-47.5 -7.5t-49 7.5t-21 17.5z" />
<glyph unicode="&#xd8;" d="M51 -166l62 223q-11 18 -11 35v1182q0 47 65.5 79.5t158.5 32.5q80 0 135 -24l45 168q8 16 51 16q18 0 30.5 -5t10.5 -11l-59 -223q8 -13 8 -33v-1182q0 -47 -64.5 -79.5t-156.5 -32.5q-77 0 -138 22l-45 -168q-3 -14 -49 -14q-43 0 -43 14zM240 135q0 -18 25 -30.5 t61 -12.5q35 0 60.5 13t25.5 30v699l-172 -644v-55zM240 530l172 644v57q0 17 -25.5 29t-60.5 12q-37 0 -61.5 -12t-24.5 -29v-701z" />
<glyph unicode="&#xd9;" d="M102 92v1260q0 22 68 22q70 0 70 -22v-1215q0 -19 24.5 -32t61.5 -13q35 0 60.5 13t25.5 32v1215q0 22 67 22q68 0 68 -22v-1260q0 -47 -64.5 -79.5t-156.5 -32.5q-93 0 -158.5 32.5t-65.5 79.5zM147 1868q-2 6 7.5 11.5t26 9t34.5 3.5q28 0 47.5 -7t22.5 -17l108 -383 q2 -6 -7 -11.5t-25.5 -8.5t-34.5 -3q-62 0 -70 23z" />
<glyph unicode="&#xda;" d="M102 92v1260q0 22 68 22q70 0 70 -22v-1215q0 -19 24.5 -32t61.5 -13q35 0 60.5 13t25.5 32v1215q0 22 67 22q68 0 68 -22v-1260q0 -47 -64.5 -79.5t-156.5 -32.5q-93 0 -158.5 32.5t-65.5 79.5zM256 1485l111 383q8 24 67 24q19 0 35.5 -3.5t25.5 -9t7 -11.5l-109 -383 q-8 -23 -67 -23q-19 0 -36 3t-26.5 8.5t-7.5 11.5z" />
<glyph unicode="&#xdb;" d="M102 92v1260q0 22 68 22q70 0 70 -22v-1215q0 -19 24.5 -32t61.5 -13q35 0 60.5 13t25.5 32v1215q0 22 67 22q68 0 68 -22v-1260q0 -47 -64.5 -79.5t-156.5 -32.5q-93 0 -158.5 32.5t-65.5 79.5zM113 1534l143 334q11 22 70 22q56 0 67 -22l146 -334q2 -6 -7.5 -11.5 t-26.5 -8.5t-36 -3q-57 0 -68 23l-75 176l-78 -176q-8 -23 -68 -23q-19 0 -35.5 3t-25.5 8.5t-6 11.5z" />
<glyph unicode="&#xdc;" d="M102 92v1260q0 22 68 22q70 0 70 -22v-1215q0 -19 24.5 -32t61.5 -13q35 0 60.5 13t25.5 32v1215q0 22 67 22q68 0 68 -22v-1260q0 -47 -64.5 -79.5t-156.5 -32.5q-93 0 -158.5 32.5t-65.5 79.5zM137 1604v90q0 9 19.5 15.5t48.5 6.5t48 -6.5t19 -15.5v-90q0 -11 -19 -18 t-48 -7t-48.5 7t-19.5 18zM377 1604v90q0 9 19.5 15.5t47.5 6.5q29 0 49.5 -6.5t20.5 -15.5v-90q0 -10 -20.5 -17.5t-49.5 -7.5q-28 0 -47.5 7.5t-19.5 17.5z" />
<glyph unicode="&#xdd;" d="M102 -117q0 10 20 17.5t48 7.5q29 0 49.5 -7.5t20.5 -17.5v-90q0 -17 24.5 -29t61.5 -12q35 0 60.5 12t25.5 29v619q-52 -25 -107 -25q-94 0 -148.5 35t-54.5 76v854q0 22 68 22q70 0 70 -22v-809q0 -19 24.5 -31t61.5 -12q36 0 61 12.5t25 30.5v809q0 22 67 22 q68 0 68 -22v-1602q0 -47 -64.5 -79.5t-156.5 -32.5q-93 0 -158.5 32.5t-65.5 79.5v133zM256 1485l111 383q8 24 67 24q19 0 35.5 -3.5t25.5 -9t7 -11.5l-109 -383q-8 -23 -67 -23q-19 0 -36 3t-26.5 8.5t-7.5 11.5z" />
<glyph unicode="&#xde;" horiz-adv-x="622" d="M102 14v1338q0 22 68 22q70 0 70 -22v-308h86q92 0 156.5 -32t64.5 -78v-502q0 -46 -64.5 -78t-156.5 -32h-86v-308q0 -10 -20 -17t-50 -7q-28 0 -48 7t-20 17zM240 444h86q35 0 60.5 12t25.5 29v404q0 33 -86 33h-86v-478z" />
<glyph unicode="&#xdf;" d="M102 -328v1602q0 47 65.5 79.5t158.5 32.5q92 0 156.5 -32.5t64.5 -79.5v-479q0 -32 -19.5 -58t-50.5 -37q31 -11 50.5 -36.5t19.5 -57.5v-514q0 -47 -64.5 -79.5t-156.5 -32.5q-9 0 -17 18t-8 43t8 43t17 18q36 0 61 12.5t25 30.5v451q0 18 -25 30.5t-61 12.5 q-9 0 -17 18t-8 43t8 43.5t17 18.5q36 0 61 12.5t25 30.5v426q0 17 -25.5 29t-60.5 12q-37 0 -61.5 -12t-24.5 -29v-1559q0 -22 -70 -22q-68 0 -68 22z" />
<glyph unicode="&#xe0;" d="M102 14v918q0 47 65.5 79.5t158.5 32.5q92 0 156.5 -32.5t64.5 -79.5v-918q0 -10 -19.5 -17t-48.5 -7t-48 7t-19 17v455h-172v-455q0 -10 -20 -17t-50 -7q-28 0 -48 7t-20 17zM147 1526q-2 6 7.5 11.5t26 9t34.5 3.5q28 0 47.5 -7t22.5 -17l108 -383q2 -6 -7 -11.5 t-25.5 -8.5t-34.5 -3q-62 0 -70 23zM240 592h172v295q0 19 -25.5 32t-60.5 13q-37 0 -61.5 -13t-24.5 -32v-295z" />
<glyph unicode="&#xe1;" d="M102 14v918q0 47 65.5 79.5t158.5 32.5q92 0 156.5 -32.5t64.5 -79.5v-918q0 -10 -19.5 -17t-48.5 -7t-48 7t-19 17v455h-172v-455q0 -10 -20 -17t-50 -7q-28 0 -48 7t-20 17zM240 592h172v295q0 19 -25.5 32t-60.5 13q-37 0 -61.5 -13t-24.5 -32v-295zM256 1143l111 383 q8 24 67 24q19 0 35.5 -3.5t25.5 -9t7 -11.5l-109 -383q-8 -23 -67 -23q-19 0 -36 3t-26.5 8.5t-7.5 11.5z" />
<glyph unicode="&#xe2;" d="M102 14v918q0 47 65.5 79.5t158.5 32.5q92 0 156.5 -32.5t64.5 -79.5v-918q0 -10 -19.5 -17t-48.5 -7t-48 7t-19 17v455h-172v-455q0 -10 -20 -17t-50 -7q-28 0 -48 7t-20 17zM113 1194l143 332q12 24 70 24q55 0 67 -24l146 -332q2 -6 -7.5 -12t-26.5 -9.5t-36 -3.5 q-55 0 -68 25l-75 176l-78 -176q-3 -10 -21.5 -17.5t-46.5 -7.5q-19 0 -36 3.5t-25.5 9.5t-5.5 12zM240 592h172v295q0 19 -25.5 32t-60.5 13q-37 0 -61.5 -13t-24.5 -32v-295z" />
<glyph unicode="&#xe3;" d="M102 14v918q0 47 65.5 79.5t158.5 32.5q92 0 156.5 -32.5t64.5 -79.5v-918q0 -10 -19.5 -17t-48.5 -7t-48 7t-19 17v455h-172v-455q0 -10 -20 -17t-50 -7q-28 0 -48 7t-20 17zM102 1143v137q0 46 66 78.5t158 32.5q35 0 60.5 13t25.5 30v92q0 10 19 17t48 7t48.5 -7 t19.5 -17v-135q0 -47 -64.5 -80t-156.5 -33q-37 0 -61.5 -12t-24.5 -31v-92q0 -10 -20 -16.5t-50 -6.5q-29 0 -48.5 6.5t-19.5 16.5zM240 592h172v295q0 19 -25.5 32t-60.5 13q-37 0 -61.5 -13t-24.5 -32v-295z" />
<glyph unicode="&#xe4;" d="M102 14v918q0 47 65.5 79.5t158.5 32.5q92 0 156.5 -32.5t64.5 -79.5v-918q0 -10 -19.5 -17t-48.5 -7t-48 7t-19 17v455h-172v-455q0 -10 -20 -17t-50 -7q-28 0 -48 7t-20 17zM137 1262v90q0 22 68 22q67 0 67 -22v-90q0 -23 -67 -23q-68 0 -68 23zM240 592h172v295 q0 19 -25.5 32t-60.5 13q-37 0 -61.5 -13t-24.5 -32v-295zM377 1262v90q0 22 67 22q70 0 70 -22v-90q0 -10 -20 -16.5t-50 -6.5q-28 0 -47.5 6.5t-19.5 16.5z" />
<glyph unicode="&#xe5;" d="M102 14v918q0 47 65.5 79.5t158.5 32.5q92 0 156.5 -32.5t64.5 -79.5v-918q0 -10 -19.5 -17t-48.5 -7t-48 7t-19 17v455h-172v-455q0 -10 -20 -17t-50 -7q-28 0 -48 7t-20 17zM115 1219v233q0 43 61.5 75t149.5 32q87 0 148 -32t61 -75v-233q0 -43 -61 -75t-148 -32 q-88 0 -149.5 32t-61.5 75zM231 1257q0 -20 28 -33.5t67 -13.5q37 0 64.5 13.5t27.5 33.5v156q0 20 -27.5 33.5t-64.5 13.5q-39 0 -67 -13.5t-28 -33.5v-156zM240 592h172v295q0 19 -25.5 32t-60.5 13q-37 0 -61.5 -13t-24.5 -32v-295z" />
<glyph unicode="&#xe6;" horiz-adv-x="923" d="M102 14v918q0 47 65.5 79.5t158.5 32.5t153 -47q57 47 154 47q93 0 158 -32.5t65 -79.5v-133q0 -10 -19.5 -16.5t-48.5 -6.5q-30 0 -49.5 6.5t-19.5 16.5v90q0 18 -25 30.5t-61 12.5q-35 0 -60.5 -13t-25.5 -30v-297h241q9 0 16 -18.5t7 -43.5q0 -26 -7 -43.5t-16 -17.5 h-241v-334q0 -17 25.5 -30t60.5 -13q36 0 61 12.5t25 30.5v90q0 10 19.5 16.5t49.5 6.5q29 0 48.5 -6.5t19.5 -16.5v-133q0 -47 -65 -79.5t-158 -32.5q-92 0 -156.5 32.5t-64.5 79.5v377h-172v-455q0 -10 -20 -17t-50 -7q-28 0 -48 7t-20 17zM240 592h172v297q0 17 -25.5 30 t-60.5 13q-36 0 -61 -12.5t-25 -30.5v-297z" />
<glyph unicode="&#xe7;" horiz-adv-x="616" d="M102 92v840q0 47 65.5 79.5t158.5 32.5q92 0 156.5 -32.5t64.5 -79.5v-133q0 -23 -68 -23q-67 0 -67 23v90q0 17 -25.5 30t-60.5 13q-36 0 -61 -12.5t-25 -30.5v-754q0 -18 25 -30.5t61 -12.5q35 0 60.5 13t25.5 30v90q0 23 67 23q68 0 68 -23v-133q0 -38 -44 -67.5 t-112 -38.5l-88 -314q-7 -22 -67 -22q-19 0 -36 3t-26.5 8t-7.5 11l90 314q-69 11 -111.5 39.5t-42.5 66.5z" />
<glyph unicode="&#xe8;" horiz-adv-x="616" d="M102 92v840q0 47 65.5 79.5t158.5 32.5q92 0 156.5 -32.5t64.5 -79.5v-133q0 -23 -68 -23q-67 0 -67 23v88q0 19 -25.5 32t-60.5 13q-37 0 -61.5 -13t-24.5 -32v-295h239q9 0 16 -18.5t7 -43.5q0 -26 -7 -43.5t-16 -17.5h-239v-334q0 -18 25 -30.5t61 -12.5q35 0 60.5 13 t25.5 30v90q0 23 67 23q68 0 68 -23v-133q0 -47 -64.5 -79.5t-156.5 -32.5q-93 0 -158.5 32.5t-65.5 79.5zM147 1526q-2 6 7.5 11.5t26 9t34.5 3.5q28 0 47.5 -7t22.5 -17l108 -383q2 -6 -7 -11.5t-25.5 -8.5t-34.5 -3q-62 0 -70 23z" />
<glyph unicode="&#xe9;" horiz-adv-x="616" d="M102 92v840q0 47 65.5 79.5t158.5 32.5q92 0 156.5 -32.5t64.5 -79.5v-133q0 -23 -68 -23q-67 0 -67 23v88q0 19 -25.5 32t-60.5 13q-37 0 -61.5 -13t-24.5 -32v-295h239q9 0 16 -18.5t7 -43.5q0 -26 -7 -43.5t-16 -17.5h-239v-334q0 -18 25 -30.5t61 -12.5q35 0 60.5 13 t25.5 30v90q0 23 67 23q68 0 68 -23v-133q0 -47 -64.5 -79.5t-156.5 -32.5q-93 0 -158.5 32.5t-65.5 79.5zM256 1143l111 383q8 24 67 24q19 0 35.5 -3.5t25.5 -9t7 -11.5l-109 -383q-8 -23 -67 -23q-19 0 -36 3t-26.5 8.5t-7.5 11.5z" />
<glyph unicode="&#xea;" horiz-adv-x="616" d="M102 92v840q0 47 65.5 79.5t158.5 32.5q92 0 156.5 -32.5t64.5 -79.5v-133q0 -23 -68 -23q-67 0 -67 23v88q0 19 -25.5 32t-60.5 13q-37 0 -61.5 -13t-24.5 -32v-295h239q9 0 16 -18.5t7 -43.5q0 -26 -7 -43.5t-16 -17.5h-239v-334q0 -18 25 -30.5t61 -12.5q35 0 60.5 13 t25.5 30v90q0 23 67 23q68 0 68 -23v-133q0 -47 -64.5 -79.5t-156.5 -32.5q-93 0 -158.5 32.5t-65.5 79.5zM113 1194l143 332q12 24 70 24q55 0 67 -24l146 -332q2 -6 -7.5 -12t-26.5 -9.5t-36 -3.5q-55 0 -68 25l-75 176l-78 -176q-3 -10 -21.5 -17.5t-46.5 -7.5 q-19 0 -36 3.5t-25.5 9.5t-5.5 12z" />
<glyph unicode="&#xeb;" horiz-adv-x="616" d="M102 92v840q0 47 65.5 79.5t158.5 32.5q92 0 156.5 -32.5t64.5 -79.5v-133q0 -23 -68 -23q-67 0 -67 23v88q0 19 -25.5 32t-60.5 13q-37 0 -61.5 -13t-24.5 -32v-295h239q9 0 16 -18.5t7 -43.5q0 -26 -7 -43.5t-16 -17.5h-239v-334q0 -18 25 -30.5t61 -12.5q35 0 60.5 13 t25.5 30v90q0 23 67 23q68 0 68 -23v-133q0 -47 -64.5 -79.5t-156.5 -32.5q-93 0 -158.5 32.5t-65.5 79.5zM137 1262v90q0 22 68 22q67 0 67 -22v-90q0 -23 -67 -23q-68 0 -68 23zM377 1262v90q0 22 67 22q70 0 70 -22v-90q0 -10 -20 -16.5t-50 -6.5q-28 0 -47.5 6.5 t-19.5 16.5z" />
<glyph unicode="&#xec;" horiz-adv-x="342" d="M-6 1526q-2 6 6.5 11.5t25 9t35.5 3.5q28 0 46.5 -7t21.5 -17l111 -383q2 -6 -7.5 -11.5t-26.5 -8.5t-36 -3q-27 0 -46 7t-22 16zM102 14v996q0 10 20 17t48 7q30 0 50 -7t20 -17v-996q0 -10 -20 -17t-50 -7q-28 0 -48 7t-20 17z" />
<glyph unicode="&#xed;" horiz-adv-x="342" d="M102 14v996q0 10 20 17t48 7q30 0 50 -7t20 -17v-996q0 -10 -20 -17t-50 -7q-28 0 -48 7t-20 17zM102 1143l111 383q3 10 21.5 17t46.5 7q19 0 35.5 -3.5t25 -9t6.5 -11.5l-108 -383q-3 -9 -22 -16t-46 -7q-19 0 -36 3t-26.5 8.5t-7.5 11.5z" />
<glyph unicode="&#xee;" horiz-adv-x="342" d="M-41 1194l143 332q12 24 70 24q56 0 68 -24l145 -332q2 -6 -7.5 -12t-26.5 -9.5t-36 -3.5q-26 0 -44 7.5t-23 17.5l-76 176l-78 -176q-3 -10 -21.5 -17.5t-45.5 -7.5q-19 0 -36 3.5t-26 9.5t-6 12zM102 14v996q0 10 20 17t48 7q30 0 50 -7t20 -17v-996q0 -10 -20 -17 t-50 -7q-28 0 -48 7t-20 17z" />
<glyph unicode="&#xef;" horiz-adv-x="342" d="M-18 1262v90q0 22 69 22q68 0 68 -22v-90q0 -10 -19.5 -16.5t-48.5 -6.5q-30 0 -49.5 6.5t-19.5 16.5zM102 14v996q0 10 20 17t48 7q30 0 50 -7t20 -17v-996q0 -10 -20 -17t-50 -7q-28 0 -48 7t-20 17zM223 1262v90q0 22 68 22q67 0 67 -22v-90q0 -23 -67 -23 q-68 0 -68 23z" />
<glyph unicode="&#xf0;" horiz-adv-x="669" d="M102 92v492q0 41 54.5 75.5t148.5 34.5q57 0 107 -24v182h-172q-9 0 -17 18t-8 43t8 43.5t17 18.5h172v244q0 45 -86 45q-9 0 -17 18t-8 43q0 24 8 42.5t17 18.5q110 0 165.5 -32t55.5 -80v-299h80q22 0 22 -62q0 -61 -22 -61h-80v-760q0 -47 -64.5 -79.5t-156.5 -32.5 q-93 0 -158.5 32.5t-65.5 79.5zM240 135q0 -18 25 -30.5t61 -12.5q35 0 60.5 13t25.5 30v404q0 18 -25 30.5t-61 12.5q-37 0 -61.5 -12t-24.5 -31v-404z" />
<glyph unicode="&#xf1;" d="M102 14v918q0 47 65.5 79.5t158.5 32.5q92 0 156.5 -32.5t64.5 -79.5v-918q0 -10 -19.5 -17t-48.5 -7t-48 7t-19 17v875q0 17 -25.5 30t-60.5 13q-36 0 -61 -12.5t-25 -30.5v-875q0 -10 -20 -17t-50 -7q-28 0 -48 7t-20 17zM102 1143v137q0 46 66 78.5t158 32.5 q35 0 60.5 13t25.5 30v92q0 10 19 17t48 7t48.5 -7t19.5 -17v-135q0 -47 -64.5 -80t-156.5 -33q-37 0 -61.5 -12t-24.5 -31v-92q0 -10 -20 -16.5t-50 -6.5q-29 0 -48.5 6.5t-19.5 16.5z" />
<glyph unicode="&#xf2;" d="M102 92v840q0 47 65.5 79.5t158.5 32.5q92 0 156.5 -32.5t64.5 -79.5v-840q0 -47 -64.5 -79.5t-156.5 -32.5q-93 0 -158.5 32.5t-65.5 79.5zM147 1526q-2 6 7.5 11.5t26 9t34.5 3.5q28 0 47.5 -7t22.5 -17l108 -383q2 -6 -7 -11.5t-25.5 -8.5t-34.5 -3q-62 0 -70 23z M240 135q0 -18 25 -30.5t61 -12.5q35 0 60.5 13t25.5 30v754q0 17 -25.5 30t-60.5 13q-36 0 -61 -12.5t-25 -30.5v-754z" />
<glyph unicode="&#xf3;" d="M102 92v840q0 47 65.5 79.5t158.5 32.5q92 0 156.5 -32.5t64.5 -79.5v-840q0 -47 -64.5 -79.5t-156.5 -32.5q-93 0 -158.5 32.5t-65.5 79.5zM240 135q0 -18 25 -30.5t61 -12.5q35 0 60.5 13t25.5 30v754q0 17 -25.5 30t-60.5 13q-36 0 -61 -12.5t-25 -30.5v-754z M256 1143l111 383q8 24 67 24q19 0 35.5 -3.5t25.5 -9t7 -11.5l-109 -383q-8 -23 -67 -23q-19 0 -36 3t-26.5 8.5t-7.5 11.5z" />
<glyph unicode="&#xf4;" d="M102 92v840q0 47 65.5 79.5t158.5 32.5q92 0 156.5 -32.5t64.5 -79.5v-840q0 -47 -64.5 -79.5t-156.5 -32.5q-93 0 -158.5 32.5t-65.5 79.5zM113 1194l143 332q12 24 70 24q55 0 67 -24l146 -332q2 -6 -7.5 -12t-26.5 -9.5t-36 -3.5q-55 0 -68 25l-75 176l-78 -176 q-3 -10 -21.5 -17.5t-46.5 -7.5q-19 0 -36 3.5t-25.5 9.5t-5.5 12zM240 135q0 -18 25 -30.5t61 -12.5q35 0 60.5 13t25.5 30v754q0 17 -25.5 30t-60.5 13q-36 0 -61 -12.5t-25 -30.5v-754z" />
<glyph unicode="&#xf5;" d="M102 92v840q0 47 65.5 79.5t158.5 32.5q92 0 156.5 -32.5t64.5 -79.5v-840q0 -47 -64.5 -79.5t-156.5 -32.5q-93 0 -158.5 32.5t-65.5 79.5zM102 1143v137q0 46 66 78.5t158 32.5q35 0 60.5 13t25.5 30v92q0 10 19 17t48 7t48.5 -7t19.5 -17v-135q0 -47 -64.5 -80 t-156.5 -33q-37 0 -61.5 -12t-24.5 -31v-92q0 -10 -20 -16.5t-50 -6.5q-29 0 -48.5 6.5t-19.5 16.5zM240 135q0 -18 25 -30.5t61 -12.5q35 0 60.5 13t25.5 30v754q0 17 -25.5 30t-60.5 13q-36 0 -61 -12.5t-25 -30.5v-754z" />
<glyph unicode="&#xf6;" d="M102 92v840q0 47 65.5 79.5t158.5 32.5q92 0 156.5 -32.5t64.5 -79.5v-840q0 -47 -64.5 -79.5t-156.5 -32.5q-93 0 -158.5 32.5t-65.5 79.5zM137 1262v90q0 22 68 22q67 0 67 -22v-90q0 -23 -67 -23q-68 0 -68 23zM240 135q0 -18 25 -30.5t61 -12.5q35 0 60.5 13t25.5 30 v754q0 17 -25.5 30t-60.5 13q-36 0 -61 -12.5t-25 -30.5v-754zM377 1262v90q0 22 67 22q70 0 70 -22v-90q0 -10 -20 -16.5t-50 -6.5q-28 0 -47.5 6.5t-19.5 16.5z" />
<glyph unicode="&#xf7;" horiz-adv-x="706" d="M59 598q0 61 23 61h543q9 0 15.5 -17.5t6.5 -43.5t-6.5 -43.5t-15.5 -17.5h-543q-23 0 -23 61zM283 248v90q0 9 19.5 15.5t47.5 6.5q29 0 49.5 -6.5t20.5 -15.5v-90q0 -10 -20.5 -17.5t-49.5 -7.5q-28 0 -47.5 7.5t-19.5 17.5zM287 858v90q0 10 19.5 17.5t47.5 7.5 t49 -7.5t21 -17.5v-90q0 -9 -21 -15.5t-49 -6.5t-47.5 6.5t-19.5 15.5z" />
<glyph unicode="&#xf8;" d="M55 -166l70 209q-23 23 -23 49v840q0 47 65.5 79.5t158.5 32.5q70 0 123 -18l55 164q4 14 51 14q20 0 31.5 -4t9.5 -10l-70 -209q21 -25 21 -49v-840q0 -47 -64.5 -79.5t-156.5 -32.5q-72 0 -125 18l-56 -164q-3 -14 -51 -14q-41 2 -39 14zM240 389l168 510 q-8 14 -30.5 23.5t-51.5 9.5q-36 0 -61 -12.5t-25 -30.5v-500zM242 125q8 -14 31 -23.5t53 -9.5q35 0 60.5 13t25.5 30v500z" />
<glyph unicode="&#xf9;" d="M102 92v918q0 10 20 17t48 7q30 0 50 -7t20 -17v-873q0 -19 24.5 -32t61.5 -13q35 0 60.5 13t25.5 32v873q0 10 19 17t48 7t48.5 -7t19.5 -17v-918q0 -47 -64.5 -79.5t-156.5 -32.5q-93 0 -158.5 32.5t-65.5 79.5zM147 1526q-2 6 7.5 11.5t26 9t34.5 3.5q28 0 47.5 -7 t22.5 -17l108 -383q2 -6 -7 -11.5t-25.5 -8.5t-34.5 -3q-62 0 -70 23z" />
<glyph unicode="&#xfa;" d="M102 92v918q0 10 20 17t48 7q30 0 50 -7t20 -17v-873q0 -19 24.5 -32t61.5 -13q35 0 60.5 13t25.5 32v873q0 10 19 17t48 7t48.5 -7t19.5 -17v-918q0 -47 -64.5 -79.5t-156.5 -32.5q-93 0 -158.5 32.5t-65.5 79.5zM256 1143l111 383q8 24 67 24q19 0 35.5 -3.5t25.5 -9 t7 -11.5l-109 -383q-8 -23 -67 -23q-19 0 -36 3t-26.5 8.5t-7.5 11.5z" />
<glyph unicode="&#xfb;" d="M102 92v918q0 10 20 17t48 7q30 0 50 -7t20 -17v-873q0 -19 24.5 -32t61.5 -13q35 0 60.5 13t25.5 32v873q0 10 19 17t48 7t48.5 -7t19.5 -17v-918q0 -47 -64.5 -79.5t-156.5 -32.5q-93 0 -158.5 32.5t-65.5 79.5zM113 1194l143 332q12 24 70 24q55 0 67 -24l146 -332 q2 -6 -7.5 -12t-26.5 -9.5t-36 -3.5q-55 0 -68 25l-75 176l-78 -176q-3 -10 -21.5 -17.5t-46.5 -7.5q-19 0 -36 3.5t-25.5 9.5t-5.5 12z" />
<glyph unicode="&#xfc;" d="M102 92v918q0 10 20 17t48 7q30 0 50 -7t20 -17v-873q0 -19 24.5 -32t61.5 -13q35 0 60.5 13t25.5 32v873q0 10 19 17t48 7t48.5 -7t19.5 -17v-918q0 -47 -64.5 -79.5t-156.5 -32.5q-93 0 -158.5 32.5t-65.5 79.5zM137 1262v90q0 22 68 22q67 0 67 -22v-90q0 -23 -67 -23 q-68 0 -68 23zM377 1262v90q0 22 67 22q70 0 70 -22v-90q0 -10 -20 -16.5t-50 -6.5q-28 0 -47.5 6.5t-19.5 16.5z" />
<glyph unicode="&#xfd;" horiz-adv-x="581" d="M68 586v424q0 10 20 17t49 7q28 0 48 -7t20 -17v-379q0 -18 25 -30.5t61 -12.5t61 12.5t25 30.5v379q0 10 19.5 17t47.5 7q30 0 50 -7t20 -17v-424q0 -38 -43.5 -67t-112.5 -40v-465q0 -10 -19 -17t-48 -7t-48.5 7t-19.5 17v465q-68 11 -111.5 40t-43.5 67zM223 1143 l109 383q3 10 21.5 17t45.5 7q19 0 36 -3.5t26.5 -9t7.5 -11.5l-111 -383q-8 -23 -67 -23q-19 0 -35.5 3t-25.5 8.5t-7 11.5z" />
<glyph unicode="&#xfe;" d="M102 -328v1680q0 22 68 22q70 0 70 -22v-332q53 24 106 24q93 0 147 -34.5t54 -77.5v-840q0 -43 -54 -77.5t-147 -34.5q-53 0 -106 24v-332q0 -22 -70 -22q-68 0 -68 22zM240 135q0 -18 25 -30.5t61 -12.5q35 0 60.5 13t25.5 30v754q0 17 -25.5 30t-60.5 13 q-36 0 -61 -12.5t-25 -30.5v-754z" />
<glyph unicode="&#xff;" horiz-adv-x="581" d="M68 586v424q0 10 20 17t49 7q28 0 48 -7t20 -17v-379q0 -18 25 -30.5t61 -12.5t61 12.5t25 30.5v379q0 10 19.5 17t47.5 7q30 0 50 -7t20 -17v-424q0 -38 -43.5 -67t-112.5 -40v-465q0 -10 -19 -17t-48 -7t-48.5 7t-19.5 17v465q-68 11 -111.5 40t-43.5 67zM102 1262v90 q0 22 68 22t68 -22v-90q0 -23 -68 -23t-68 23zM342 1262v90q0 22 68 22q69 0 69 -22v-90q0 -10 -19.5 -16.5t-49.5 -6.5q-29 0 -48.5 6.5t-19.5 16.5z" />
<glyph unicode="&#x152;" horiz-adv-x="944" d="M102 92v1182q0 47 65.5 79.5t158.5 32.5q95 0 153 -49q55 49 154 49q93 0 158 -32.5t65 -79.5v-518q0 -47 -65.5 -80t-157.5 -33h-86v-508q0 -17 25.5 -30t60.5 -13q36 0 61 12.5t25 30.5v90q0 10 19.5 16.5t49.5 6.5q29 0 48.5 -6.5t19.5 -16.5v-133q0 -47 -65 -79.5 t-158 -32.5q-97 0 -154 47q-60 -47 -153 -47t-158.5 32.5t-65.5 79.5zM240 135q0 -18 25 -30.5t61 -12.5q35 0 60.5 13t25.5 30v1096q0 17 -25.5 29t-60.5 12q-37 0 -61.5 -12t-24.5 -29v-1096zM547 766h86q37 0 61.5 12t24.5 31v422q0 17 -24.5 29t-61.5 12 q-35 0 -60.5 -12t-25.5 -29v-465z" />
<glyph unicode="&#x153;" horiz-adv-x="923" d="M102 92v840q0 47 65.5 79.5t158.5 32.5t153 -47q57 47 154 47q93 0 158 -32.5t65 -79.5v-133q0 -10 -19.5 -16.5t-48.5 -6.5q-30 0 -49.5 6.5t-19.5 16.5v90q0 18 -25 30.5t-61 12.5q-35 0 -60.5 -13t-25.5 -30v-297h241q9 0 16 -18.5t7 -43.5q0 -26 -7 -43.5t-16 -17.5 h-241v-334q0 -17 25.5 -30t60.5 -13q36 0 61 12.5t25 30.5v90q0 10 19.5 16.5t49.5 6.5q29 0 48.5 -6.5t19.5 -16.5v-133q0 -47 -65 -79.5t-158 -32.5q-97 0 -154 47q-60 -47 -153 -47t-158.5 32.5t-65.5 79.5zM240 135q0 -18 25 -30.5t61 -12.5q35 0 60.5 13t25.5 30v754 q0 17 -25.5 30t-60.5 13q-36 0 -61 -12.5t-25 -30.5v-754z" />
<glyph unicode="&#x178;" d="M102 -117q0 10 20 17.5t48 7.5q29 0 49.5 -7.5t20.5 -17.5v-90q0 -17 24.5 -29t61.5 -12q35 0 60.5 12t25.5 29v619q-52 -25 -107 -25q-94 0 -148.5 35t-54.5 76v854q0 22 68 22q70 0 70 -22v-809q0 -19 24.5 -31t61.5 -12q36 0 61 12.5t25 30.5v809q0 22 67 22 q68 0 68 -22v-1602q0 -47 -64.5 -79.5t-156.5 -32.5q-93 0 -158.5 32.5t-65.5 79.5v133zM137 1604v90q0 9 19.5 15.5t48.5 6.5t48 -6.5t19 -15.5v-90q0 -11 -19 -18t-48 -7t-48.5 7t-19.5 18zM377 1604v90q0 9 19.5 15.5t47.5 6.5q29 0 49.5 -6.5t20.5 -15.5v-90 q0 -10 -20.5 -17.5t-49.5 -7.5q-28 0 -47.5 7.5t-19.5 17.5z" />
<glyph unicode="&#x2c6;" d="M113 1194l143 332q12 24 70 24q55 0 67 -24l146 -332q2 -6 -7.5 -12t-26.5 -9.5t-36 -3.5q-55 0 -68 25l-75 176l-78 -176q-3 -10 -21.5 -17.5t-46.5 -7.5q-19 0 -36 3.5t-25.5 9.5t-5.5 12z" />
<glyph unicode="&#x2dc;" d="M102 1143v137q0 46 66 78.5t158 32.5q35 0 60.5 13t25.5 30v92q0 10 19 17t48 7t48.5 -7t19.5 -17v-135q0 -47 -64.5 -80t-156.5 -33q-37 0 -61.5 -12t-24.5 -31v-92q0 -10 -20 -16.5t-50 -6.5q-29 0 -48.5 6.5t-19.5 16.5z" />
<glyph unicode="&#x2000;" horiz-adv-x="949" />
<glyph unicode="&#x2001;" horiz-adv-x="1898" />
<glyph unicode="&#x2002;" horiz-adv-x="949" />
<glyph unicode="&#x2003;" horiz-adv-x="1898" />
<glyph unicode="&#x2004;" horiz-adv-x="632" />
<glyph unicode="&#x2005;" horiz-adv-x="474" />
<glyph unicode="&#x2006;" horiz-adv-x="316" />
<glyph unicode="&#x2007;" horiz-adv-x="316" />
<glyph unicode="&#x2008;" horiz-adv-x="237" />
<glyph unicode="&#x2009;" horiz-adv-x="379" />
<glyph unicode="&#x200a;" horiz-adv-x="105" />
<glyph unicode="&#x2010;" horiz-adv-x="591" d="M59 598q0 61 23 61h428q9 0 15.5 -17.5t6.5 -43.5t-6.5 -43.5t-15.5 -17.5h-428q-23 0 -23 61z" />
<glyph unicode="&#x2011;" horiz-adv-x="591" d="M59 598q0 61 23 61h428q9 0 15.5 -17.5t6.5 -43.5t-6.5 -43.5t-15.5 -17.5h-428q-23 0 -23 61z" />
<glyph unicode="&#x2012;" horiz-adv-x="591" d="M59 598q0 61 23 61h428q9 0 15.5 -17.5t6.5 -43.5t-6.5 -43.5t-15.5 -17.5h-428q-23 0 -23 61z" />
<glyph unicode="&#x2013;" horiz-adv-x="1019" d="M59 598q0 61 23 61h856q9 0 16 -17.5t7 -43.5t-7 -43.5t-16 -17.5h-856q-23 0 -23 61z" />
<glyph unicode="&#x2014;" horiz-adv-x="1447" d="M59 598q0 61 23 61h1284q9 0 16 -17.5t7 -43.5t-7 -43.5t-16 -17.5h-1284q-23 0 -23 61z" />
<glyph unicode="&#x2018;" horiz-adv-x="342" d="M102 1057v295q0 22 68 22q70 0 70 -22v-295q0 -10 -20 -16.5t-50 -6.5q-29 0 -48.5 6.5t-19.5 16.5z" />
<glyph unicode="&#x2019;" horiz-adv-x="342" d="M102 1057v295q0 22 68 22q70 0 70 -22v-295q0 -10 -20 -16.5t-50 -6.5q-29 0 -48.5 6.5t-19.5 16.5z" />
<glyph unicode="&#x201a;" horiz-adv-x="342" d="M102 104q0 9 20.5 16t47.5 7q29 0 49.5 -7t20.5 -16v-294q0 -10 -20.5 -17.5t-49.5 -7.5q-28 0 -48 7.5t-20 17.5v294z" />
<glyph unicode="&#x201c;" horiz-adv-x="579" d="M102 1057v295q0 22 68 22q70 0 70 -22v-295q0 -10 -20 -16.5t-50 -6.5q-29 0 -48.5 6.5t-19.5 16.5zM342 1057v295q0 22 68 22q67 0 67 -22v-295q0 -23 -67 -23q-68 0 -68 23z" />
<glyph unicode="&#x201d;" horiz-adv-x="579" d="M102 1057v295q0 22 68 22q70 0 70 -22v-295q0 -10 -20 -16.5t-50 -6.5q-29 0 -48.5 6.5t-19.5 16.5zM342 1057v295q0 22 68 22q67 0 67 -22v-295q0 -23 -67 -23q-68 0 -68 23z" />
<glyph unicode="&#x201e;" horiz-adv-x="579" d="M102 104q0 9 20.5 16t47.5 7q29 0 49.5 -7t20.5 -16v-294q0 -10 -20.5 -17.5t-49.5 -7.5q-28 0 -48 7.5t-20 17.5v294zM342 104q0 9 19.5 16t48.5 7t48 -7t19 -16v-294q0 -11 -19 -18t-48 -7t-48.5 7t-19.5 18v294z" />
<glyph unicode="&#x2022;" d="M102 92v1182q0 47 65.5 79.5t158.5 32.5q92 0 156.5 -32.5t64.5 -79.5v-1182q0 -47 -64.5 -79.5t-156.5 -32.5q-93 0 -158.5 32.5t-65.5 79.5z" />
<glyph unicode="&#x2026;" horiz-adv-x="819" d="M102 14v90q0 9 20.5 16t47.5 7q29 0 49.5 -7t20.5 -16v-90q0 -10 -20 -17t-50 -7q-28 0 -48 7t-20 17zM342 14v90q0 9 19.5 16t48.5 7t48 -7t19 -16v-90q0 -10 -19 -17t-48 -7t-48.5 7t-19.5 17zM580 14v90q0 9 20 16t49 7q27 0 47.5 -7t20.5 -16v-90q0 -10 -20 -17 t-48 -7q-29 0 -49 7t-20 17z" />
<glyph unicode="&#x202f;" horiz-adv-x="379" />
<glyph unicode="&#x2039;" horiz-adv-x="530" d="M102 512l222 498q4 10 27 17t52 7q28 0 44.5 -7t13.5 -17l-221 -498l221 -498q3 -10 -13.5 -17t-44.5 -7q-29 0 -52 7t-27 17z" />
<glyph unicode="&#x203a;" horiz-adv-x="530" d="M70 14l221 498l-221 498q-4 10 12.5 17t44.5 7q66 0 80 -24l221 -498l-221 -498q-14 -24 -80 -24q-28 0 -44.5 7t-12.5 17z" />
<glyph unicode="&#x205f;" horiz-adv-x="474" />
<glyph unicode="&#x20ac;" horiz-adv-x="667" d="M29 514q0 25 6.5 43t15.5 18h103v220h-103q-9 0 -15.5 17.5t-6.5 43.5t6.5 44t15.5 18h103v356q0 47 65 79.5t158 32.5t158 -32.5t65 -79.5v-133q0 -10 -20.5 -17.5t-49.5 -7.5q-28 0 -47.5 7.5t-19.5 17.5v90q0 17 -25.5 29t-60.5 12t-60.5 -12t-25.5 -29v-313h172 q22 0 22 -62q0 -61 -22 -61h-172v-220h172q22 0 22 -61t-22 -61h-172v-318q0 -17 25.5 -30t60.5 -13t60.5 13t25.5 30v90q0 10 19.5 16.5t47.5 6.5q30 0 50 -6.5t20 -16.5v-133q0 -47 -65 -79.5t-158 -32.5t-158 32.5t-65 79.5v361h-103q-9 0 -15.5 17.5t-6.5 43.5z" />
<glyph unicode="&#x2122;" horiz-adv-x="966" d="M29 1325q0 41 14 41h297q6 0 11 -12t5 -29q0 -41 -14 -41h-104v-594q0 -14 -45 -14q-46 0 -46 14v594h-104q-14 0 -14 41zM412 690v606q0 31 39.5 53.5t99.5 22.5q51 0 94 -26q43 26 94 26q60 0 100 -22.5t40 -53.5v-606q0 -14 -48 -14q-45 0 -45 14v578q0 28 -47 28 q-49 0 -49 -28v-578q0 -14 -45 -14t-45 14v578q0 28 -49 28t-49 -28v-578q0 -14 -45 -14t-45 14z" />
<glyph unicode="&#x25fc;" horiz-adv-x="1034" d="M0 0v1034h1034v-1034h-1034z" />
<glyph unicode="&#xfb01;" horiz-adv-x="845" d="M29 963q0 26 6.5 43.5t15.5 17.5h103v240q0 46 65.5 78t157.5 32h86q22 0 22 -61q0 -62 -22 -62h-86q-35 0 -60.5 -12t-25.5 -29v-186h385q29 0 48 -7t19 -16v-987q0 -10 -19 -17t-48 -7t-48.5 7t-19.5 17v887h-317v-887q0 -10 -20 -17t-48 -7q-29 0 -49 7t-20 17v887 h-103q-9 0 -15.5 18t-6.5 44zM608 1262v90q0 22 68 22q67 0 67 -22v-90q0 -23 -67 -23q-68 0 -68 23z" />
<glyph unicode="&#xfb02;" horiz-adv-x="886" d="M29 963q0 26 6.5 43.5t15.5 17.5h103v215q0 61 86.5 104t208.5 43q123 0 208.5 -43t85.5 -104v-1094q0 -43 86 -43q11 0 18 -17.5t7 -43.5t-7 -43.5t-18 -17.5q-110 0 -165.5 32t-55.5 80v1102q0 32 -46.5 55t-112.5 23q-65 0 -111.5 -23t-46.5 -55v-170h188q23 0 23 -61 q0 -27 -6.5 -44.5t-16.5 -17.5h-188v-887q0 -10 -20 -17t-48 -7q-29 0 -49 7t-20 17v887h-103q-9 0 -15.5 18t-6.5 44z" />
</font>
</defs>
</svg>
